<svg version="1.2" xmlns="http://www.w3.org/2000/svg" viewBox="0 0 51 51" width="51" height="51">
	<style>
		.s0 { fill: none;stroke: #050505;stroke-miterlimit:10;stroke-width: .4 } 
		.s1 { fill: #050505 } 
		.s2 { mix-blend-mode: multiply;fill: #3fc2d3 } 
	</style>
	<g id="&lt;Group&gt;">
		<g id="&lt;Group&gt;">
			<path id="&lt;Compound Path&gt;" class="s0" d="m18.42 36.4q0 1.5 0.35 2.27 0.35 0.77 1.47 1.07 1.12 0.3 3.37 0.3 0.15 0 0.15 0.3 0 0.3-0.15 0.3-1.6 0-3.47-0.05-1.87-0.05-4.07-0.05-1.75 0-3.34 0.05-1.6 0.05-2.85 0.05-0.15 0-0.15-0.3 0-0.3 0.15-0.3 1.65 0 2.45-0.25 0.8-0.25 1.07-1 0.28-0.74 0.28-2.19v-23.12q0-1.45-0.28-2.17-0.27-0.73-1.07-1-0.8-0.28-2.45-0.28-0.15 0-0.15-0.3 0-0.3 0.15-0.3 1.25 0.01 2.82 0.08 1.57 0.07 3.32 0.07 1.2 0 3.12-0.15 1.92-0.14 3.72-0.14 3.05 0 5.42 0.82 2.37 0.82 3.77 2.62 1.4 1.8 1.5 4.74 0.05 2.6-0.9 4.5-0.95 1.9-2.57 3.12-1.63 1.22-3.57 1.85-1.95 0.62-3.9 0.62-0.55 0-1.17-0.05-0.63-0.05-1.22-0.2-0.15-0.05-0.1-0.37 0.05-0.33 0.25-0.28 0.39 0.1 0.89 0.15 0.5 0.05 0.85 0.05 1.65 0 3.05-0.9 1.4-0.9 2.27-2.74 0.87-1.85 0.88-4.65-0.01-2.64-0.85-4.49-0.85-1.85-2.38-2.82-1.52-0.98-3.72-0.98-1.14 0-1.79 0.23-0.65 0.22-0.9 0.92-0.25 0.7-0.25 2.15z"/>
		</g>
		<g id="&lt;Group&gt;">
			<path id="&lt;Compound Path&gt;" class="s1" d="m16.62 35.37q0 1.5 0.35 2.28 0.35 0.77 1.48 1.07 1.12 0.3 3.37 0.3 0.15 0 0.15 0.3 0 0.3-0.15 0.3-1.6 0-3.47-0.05-1.87-0.05-4.07-0.05-1.75 0-3.35 0.05-1.6 0.05-2.84 0.05-0.15 0-0.15-0.3 0-0.3 0.15-0.3 1.64 0 2.44-0.25 0.8-0.25 1.08-1 0.27-0.75 0.27-2.2v-23.11q0-1.45-0.27-2.18-0.28-0.72-1.08-0.99-0.8-0.28-2.44-0.28-0.15 0-0.15-0.3 0-0.3 0.15-0.3 1.24 0 2.82 0.08 1.57 0.07 3.32 0.07 1.2 0 3.12-0.15 1.92-0.15 3.72-0.15 3.04 0 5.42 0.83 2.37 0.82 3.77 2.62 1.39 1.8 1.49 4.74 0.05 2.6-0.9 4.49-0.94 1.9-2.57 3.13-1.62 1.22-3.57 1.84-1.94 0.63-3.89 0.63-0.55 0-1.17-0.05-0.63-0.05-1.23-0.2-0.15-0.05-0.1-0.38 0.05-0.32 0.25-0.27 0.4 0.1 0.9 0.15 0.5 0.05 0.85 0.05 1.65 0 3.05-0.9 1.39-0.9 2.27-2.75 0.87-1.84 0.87-4.64 0-2.65-0.85-4.49-0.85-1.85-2.37-2.83-1.52-0.97-3.72-0.97-1.15 0-1.8 0.23-0.65 0.22-0.9 0.92-0.25 0.7-0.25 2.15z"/>
		</g>
		<path id="&lt;Path&gt;" class="s2" d="m43.37 38.06c0 2.48-2.02 4.5-4.5 4.5-2.48 0-4.5-2.02-4.5-4.5 0-2.49 2.02-4.5 4.5-4.5 2.48 0 4.5 2.01 4.5 4.5z"/>
	</g>
</svg>