<svg xmlns="http://www.w3.org/2000/svg" viewBox="0 0 14.59 14.59"><defs><style>.cls-1{fill:#086690;}</style></defs><g id="Layer_2" data-name="Layer 2"><g id="Layer_1-2" data-name="Layer 1"><path class="cls-1" d="M10.38,0H4.21A4.22,4.22,0,0,0,0,4.21v6.17a4.21,4.21,0,0,0,4.21,4.21h6.17a4.2,4.2,0,0,0,4.21-4.21V4.21A4.21,4.21,0,0,0,10.38,0Zm2.87,10.49a2.8,2.8,0,0,1-2.8,2.8H4.14a2.81,2.81,0,0,1-2.8-2.8V4.18a2.8,2.8,0,0,1,2.8-2.8h6.31a2.8,2.8,0,0,1,2.8,2.8Z"/><path class="cls-1" d="M7.3,3.55a3.79,3.79,0,1,0,3.78,3.78A3.79,3.79,0,0,0,7.3,3.55Zm0,6.24A2.46,2.46,0,1,1,9.75,7.33,2.46,2.46,0,0,1,7.3,9.79Z"/><path class="cls-1" d="M11.21,2.52a.89.89,0,1,0,.88.88A.88.88,0,0,0,11.21,2.52Z"/></g></g></svg>