<svg xmlns="http://www.w3.org/2000/svg" viewBox="0 0 16.76 13.62"><defs><style>.cls-1{fill:#086690;}</style></defs><g id="Layer_2" data-name="Layer 2"><g id="Layer_1-2" data-name="Layer 1"><path class="cls-1" d="M16.76,1.61a6.54,6.54,0,0,1-2,.54A3.45,3.45,0,0,0,16.3.25a6.92,6.92,0,0,1-2.19.84A3.43,3.43,0,0,0,8.17,3.44a3.33,3.33,0,0,0,.08.78A9.72,9.72,0,0,1,1.17.63,3.4,3.4,0,0,0,.7,2.36,3.45,3.45,0,0,0,2.23,5.22,3.47,3.47,0,0,1,.67,4.79v0A3.45,3.45,0,0,0,3.43,8.21a3.84,3.84,0,0,1-.91.12,2.73,2.73,0,0,1-.64-.07,3.44,3.44,0,0,0,3.21,2.39A6.92,6.92,0,0,1,.82,12.12a7.38,7.38,0,0,1-.82,0,9.77,9.77,0,0,0,5.27,1.54,9.72,9.72,0,0,0,9.78-9.78c0-.15,0-.3,0-.45A6.77,6.77,0,0,0,16.76,1.61Z"/></g></g></svg>