<svg xmlns="http://www.w3.org/2000/svg" viewBox="0 0 14.43 14.43"><defs><style>.cls-1{fill:#231f20;}</style></defs><g id="Layer_2" data-name="Layer 2"><g id="Layer_1-2" data-name="Layer 1"><path class="cls-1" d="M10.27,0H4.16A4.17,4.17,0,0,0,0,4.17v6.1a4.16,4.16,0,0,0,4.16,4.16h6.11a4.16,4.16,0,0,0,4.16-4.16V4.17A4.17,4.17,0,0,0,10.27,0ZM13.1,10.38a2.76,2.76,0,0,1-2.76,2.76H4.1a2.77,2.77,0,0,1-2.77-2.76V4.13A2.76,2.76,0,0,1,4.1,1.37h6.24A2.75,2.75,0,0,1,13.1,4.13Z"/><path class="cls-1" d="M7.22,3.51A3.75,3.75,0,1,0,11,7.25,3.74,3.74,0,0,0,7.22,3.51Zm0,6.17A2.43,2.43,0,1,1,9.64,7.25,2.43,2.43,0,0,1,7.22,9.68Z"/><path class="cls-1" d="M11.09,2.49a.88.88,0,1,0,.87.88A.87.87,0,0,0,11.09,2.49Z"/></g></g></svg>