<svg xmlns="http://www.w3.org/2000/svg" viewBox="0 0 16.58 13.47"><defs><style>.cls-1{fill:#231f20;}</style></defs><g id="Layer_2" data-name="Layer 2"><g id="Layer_1-2" data-name="Layer 1"><path class="cls-1" d="M16.58,1.59a6.48,6.48,0,0,1-2,.54A3.42,3.42,0,0,0,16.12.25,7.07,7.07,0,0,1,14,1.08,3.4,3.4,0,0,0,8.08,3.4a3.79,3.79,0,0,0,.08.77,9.65,9.65,0,0,1-7-3.55A3.44,3.44,0,0,0,.69,2.33,3.4,3.4,0,0,0,2.2,5.16,3.38,3.38,0,0,1,.66,4.74v0A3.42,3.42,0,0,0,3.39,8.12a3.68,3.68,0,0,1-.89.11,3.31,3.31,0,0,1-.64-.06A3.39,3.39,0,0,0,5,10.53,6.77,6.77,0,0,1,.81,12,5.42,5.42,0,0,1,0,11.94a9.59,9.59,0,0,0,5.21,1.53A9.61,9.61,0,0,0,14.89,3.8c0-.15,0-.3,0-.44A7,7,0,0,0,16.58,1.59Z"/></g></g></svg>