<svg xmlns="http://www.w3.org/2000/svg" viewBox="0 0 16.15 16.15"><defs><style>.cls-1{fill:#231f20;fill-rule:evenodd;}</style></defs><g id="Layer_2" data-name="Layer 2"><g id="Layer_1-2" data-name="Layer 1"><path class="cls-1" d="M16.15,7.87A7.94,7.94,0,0,1,4.39,14.75L0,16.15l1.43-4.22A7.85,7.85,0,0,1,8.22,0a7.9,7.9,0,0,1,7.93,7.87ZM8.22,1.25A6.65,6.65,0,0,0,1.56,7.87a6.52,6.52,0,0,0,1.27,3.87L2,14.2l2.56-.81A6.68,6.68,0,0,0,14.89,7.87,6.65,6.65,0,0,0,8.22,1.25Zm4,8.43c-.05-.08-.18-.13-.37-.23s-1.15-.56-1.33-.62-.31-.1-.43.09-.51.63-.62.76-.23.14-.42.05a5.39,5.39,0,0,1-1.56-1A5.48,5.48,0,0,1,6.41,7.43c-.12-.19,0-.29.08-.39a3.42,3.42,0,0,0,.29-.34A1.32,1.32,0,0,0,7,6.38.37.37,0,0,0,7,6c0-.09-.44-1-.6-1.43S6,4.24,5.92,4.24a2.38,2.38,0,0,0-.32,0A1,1,0,0,0,5,4.52a2.17,2.17,0,0,0-.68,1.6,3.73,3.73,0,0,0,.8,2A7.84,7.84,0,0,0,8.47,11c2,.77,2,.51,2.33.48a2,2,0,0,0,1.31-.92,1.57,1.57,0,0,0,.11-.91Z"/></g></g></svg>