<svg xmlns="http://www.w3.org/2000/svg" viewBox="0 0 15.65 27.46"><defs><style>.cls-1{fill:#39474f;}.cls-2{fill:#fff;}</style></defs><g id="Layer_2" data-name="Layer 2"><g id="Layer_1-2" data-name="Layer 1"><path class="cls-1" d="M12.35,27.46h-9a.83.83,0,0,1,0-1.66h9a.83.83,0,1,1,0,1.66Z"/><path class="cls-1" d="M7.83,27.46A.83.83,0,0,1,7,26.63v-6.8a.83.83,0,1,1,1.66,0v6.8A.83.83,0,0,1,7.83,27.46Z"/><rect class="cls-1" x="3.31" width="9.04" height="16.86" rx="4.47"/><path class="cls-1" d="M7.87,20.16H7.78A7.78,7.78,0,0,1,0,12.38a.83.83,0,1,1,1.66,0A6.11,6.11,0,0,0,7.78,18.5h.09A6.11,6.11,0,0,0,14,12.38a.83.83,0,1,1,1.66,0,7.78,7.78,0,0,1-7.78,7.78Z"/><circle class="cls-2" cx="5.25" cy="7.92" r="0.4"/><circle class="cls-2" cx="6.98" cy="7.92" r="0.4"/><circle class="cls-2" cx="8.7" cy="7.92" r="0.4"/><circle class="cls-2" cx="10.43" cy="7.92" r="0.4"/><circle class="cls-2" cx="4.38" cy="7.07" r="0.4"/><circle class="cls-2" cx="6.1" cy="7.07" r="0.4"/><circle class="cls-2" cx="7.82" cy="7.07" r="0.4"/><circle class="cls-2" cx="9.55" cy="7.07" r="0.4"/><circle class="cls-2" cx="11.27" cy="7.07" r="0.4"/><circle class="cls-2" cx="4.38" cy="8.72" r="0.4"/><circle class="cls-2" cx="6.1" cy="8.72" r="0.4"/><circle class="cls-2" cx="7.82" cy="8.72" r="0.4"/><circle class="cls-2" cx="9.55" cy="8.72" r="0.4"/><circle class="cls-2" cx="11.27" cy="8.72" r="0.4"/><circle class="cls-2" cx="5.25" cy="6.28" r="0.4"/><circle class="cls-2" cx="6.98" cy="6.28" r="0.4"/><circle class="cls-2" cx="8.7" cy="6.28" r="0.4"/><circle class="cls-2" cx="10.43" cy="6.28" r="0.4"/><circle class="cls-2" cx="4.38" cy="5.43" r="0.4"/><circle class="cls-2" cx="6.1" cy="5.43" r="0.4"/><circle class="cls-2" cx="7.82" cy="5.43" r="0.4"/><circle class="cls-2" cx="9.55" cy="5.43" r="0.4"/><circle class="cls-2" cx="11.27" cy="5.43" r="0.4"/><circle class="cls-2" cx="5.25" cy="4.64" r="0.4"/><circle class="cls-2" cx="6.98" cy="4.64" r="0.4"/><circle class="cls-2" cx="8.7" cy="4.64" r="0.4"/><circle class="cls-2" cx="10.43" cy="4.64" r="0.4"/><circle class="cls-2" cx="4.38" cy="3.79" r="0.4"/><circle class="cls-2" cx="6.1" cy="3.79" r="0.4"/><circle class="cls-2" cx="7.82" cy="3.79" r="0.4"/><circle class="cls-2" cx="9.55" cy="3.79" r="0.4"/><circle class="cls-2" cx="11.27" cy="3.79" r="0.4"/><circle class="cls-2" cx="5.25" cy="2.99" r="0.4"/><circle class="cls-2" cx="6.98" cy="2.99" r="0.4"/><circle class="cls-2" cx="8.7" cy="2.99" r="0.4"/><circle class="cls-2" cx="6.98" cy="1.35" r="0.4"/><circle class="cls-2" cx="8.7" cy="1.35" r="0.4"/><circle class="cls-2" cx="10.43" cy="2.99" r="0.4"/><circle class="cls-2" cx="6.1" cy="2.15" r="0.4"/><path class="cls-2" d="M8.22,2.15a.4.4,0,0,0-.4-.4.4.4,0,0,0,0,.8A.4.4,0,0,0,8.22,2.15Z"/><circle class="cls-2" cx="9.55" cy="2.15" r="0.4"/></g></g></svg>