<svg xmlns="http://www.w3.org/2000/svg" viewBox="0 0 80.68 78.54"><defs><style>.cls-1{fill:#231f20;}.cls-2{fill:#7c7d7d;}</style></defs><g id="Layer_2" data-name="Layer 2"><g id="Layer_1-2" data-name="Layer 1"><path class="cls-1" d="M2.33,26.05V.61H6V26.05Z"/><path class="cls-1" d="M32.82.61V26.66L11.61,5V0L29.18,18V.61ZM11.61,8.08l3.64,3.66V26.05H11.61Z"/><path class="cls-1" d="M52.28.61V4.24H37.74V.61Zm-14.54,11H50.46v3.59H41.38v10.9H37.74Z"/><path class="cls-1" d="M66.62.35V4a9.39,9.39,0,0,0,0,18.66v3.65a13,13,0,0,1,0-26Zm14.06,13a13,13,0,0,1-12,13V22.66A9.39,9.39,0,0,0,68.69,4V.35A13,13,0,0,1,80.68,13.33Z"/><path class="cls-1" d="M24.23,51.53H20.3l-2.47-5.45h0l-5.7-12.57L6.41,46.08h0L3.94,51.53H0l12.12-26Z"/><path class="cls-1" d="M27.64,26.09h3.64V51.53H27.64Zm5.71,25.44V47.9h8.23v3.63Z"/><path class="cls-2" d="M20.37,70.78c0,4.43-3.67,7.76-9.62,7.76A12.88,12.88,0,0,1,1,74.41L2.8,71.16a11,11,0,0,0,8,3.75c3.82,0,5.9-1.56,5.9-4,0-2-2.31-3.29-5.79-3.9-7.08-1.21-9.09-3.75-9.09-7.16,0-4.12,3.22-7.38,9.17-7.38a12.26,12.26,0,0,1,8.21,3l-1.74,3.29a9.06,9.06,0,0,0-6.55-2.69c-3.48,0-5.45,1.33-5.45,3.6,0,2,1.74,2.88,5.75,3.68C17.3,64.57,20.37,66.5,20.37,70.78Z"/><path class="cls-2" d="M43.88,52.79V67c0,6.7-3,11.51-9.69,11.51-6.82,0-9.7-4.81-9.7-11.51V52.79h3.64V68.24c0,3.94,2.23,6.67,6.06,6.67s6.05-2.73,6.05-6.67V52.79Z"/><path class="cls-2" d="M66.79,78.24H62.55l-6.32-8.79h-4v8.79H48.62V65.82h9.05c2.65,0,4.88-1.36,4.88-4.66s-2.16-4.73-4.81-4.73H48.62V52.79h7.87c6.63,0,9.7,3.33,9.7,8.14,0,3.94-2.16,7.16-5.95,8.18Z"/></g></g></svg>