<svg xmlns="http://www.w3.org/2000/svg" viewBox="0 0 325.01 43.66"><defs><style>.cls-1{fill:#231f20;}.cls-2{fill:#8e183c;}</style></defs><g id="Layer_2" data-name="Layer 2"><g id="Layer_1-2" data-name="Layer 1"><path class="cls-1" d="M0,42.66V1H6V42.66Z"/><path class="cls-1" d="M49.93,1V43.66L15.2,8.21V0L44,29.52V1ZM15.2,13.24l5.95,6V42.66H15.2Z"/><path class="cls-1" d="M81.8,1V7H58V1ZM58,18.94H78.83V24.8H63.94V42.66H58Z"/><path class="cls-1" d="M105.28.57v6a15.38,15.38,0,0,0,0,30.57v6a21.33,21.33,0,0,1,0-42.52Zm23,21.26a21.33,21.33,0,0,1-19.63,21.26v-6a15.38,15.38,0,0,0,0-30.57v-6A21.33,21.33,0,0,1,128.31,21.83Z"/><path class="cls-1" d="M177.3,42.66h-6.45l-4-8.93h0l-9.34-20.58-9.34,20.58h0l-4,8.93h-6.45L157.45,0Z"/><path class="cls-1" d="M182.88,1h6V42.66h-6Zm9.35,41.67V36.71H205.7v5.95Z"/><path class="cls-2" d="M249,30.45c0,7.25-6,12.71-15.75,12.71a21.12,21.12,0,0,1-16-6.76l3-5.33a18,18,0,0,0,13.14,6.14c6.27,0,9.68-2.55,9.68-6.51,0-3.35-3.79-5.4-9.49-6.39-11.6-2-14.88-6.14-14.88-11.72,0-6.76,5.27-12.09,15-12.09,1.74,0,8.31.18,13.46,5l-2.85,5.39a14.79,14.79,0,0,0-10.73-4.4c-5.7,0-8.93,2.17-8.93,5.89,0,3.22,2.85,4.71,9.43,6C244,20.28,249,23.44,249,30.45Z"/><path class="cls-2" d="M287.48,1V24.31c0,11-5,18.85-15.87,18.85-11.16,0-15.88-7.88-15.88-18.85V1h6v25.3c0,6.45,3.66,10.92,9.92,10.92s9.92-4.47,9.92-10.92V1Z"/><path class="cls-2" d="M325,42.66h-6.95L307.71,28.28H301.2V42.66h-6V22.32h14.82c4.34,0,8-2.23,8-7.62S314.53,7,310.19,7H295.24V1h12.9C319,1,324,6.45,324,14.32c0,6.45-3.54,11.72-9.74,13.4Z"/></g></g></svg>