<svg xmlns="http://www.w3.org/2000/svg" viewBox="0 0 312.15 53.29"><defs><style>.cls-1{fill:#015e9c;}.cls-2{fill:#231f20;}</style></defs><g id="Layer_2" data-name="Layer 2"><g id="Layer_1-2" data-name="Layer 1"><path class="cls-1" d="M13,.27.9,32.36,0,32.13,12.08,0Z"/><path class="cls-2" d="M41.53.27V7.92H41A15.93,15.93,0,0,0,40.19,6a9.84,9.84,0,0,0-1.5-2.3,8.83,8.83,0,0,0-2.48-1.95A7.75,7.75,0,0,0,32.49.9H25.38V14.72h2.5a7.26,7.26,0,0,0,2.8-.47,5,5,0,0,0,1.9-1.34,7.22,7.22,0,0,0,1.25-2.1,16.24,16.24,0,0,0,.81-2.75h.58V22h-.58c-.21-.86-.46-1.7-.74-2.5a7.23,7.23,0,0,0-1.14-2.13A5.31,5.31,0,0,0,31,15.89a5.68,5.68,0,0,0-2.62-.54h-3V31.51h7.33a9.42,9.42,0,0,0,3.72-.7,9.3,9.3,0,0,0,2.93-1.94,11.42,11.42,0,0,0,2.13-2.93,15.78,15.78,0,0,0,1.29-3.61h.59v9.8H14.77v-.62h4.12V.9H14.77V.27Z"/><path class="cls-2" d="M50.26,31.51v-18h-3v-.63h8.33v4.48h.09c.12-.27.32-.68.62-1.23a6.72,6.72,0,0,1,1.3-1.64,8,8,0,0,1,2.19-1.4,8.11,8.11,0,0,1,3.36-.61,6.08,6.08,0,0,1,4.59,1.7,6.46,6.46,0,0,1,1.63,4.66V31.51h3v.62H61.18v-.62H64V17.36a4.11,4.11,0,0,0-.76-2.75,2.6,2.6,0,0,0-2.06-.87,4.45,4.45,0,0,0-2.06.51,5,5,0,0,0-1.72,1.55,8.5,8.5,0,0,0-1.19,2.55,13.08,13.08,0,0,0-.44,3.58v9.58h2.82v.62H47.3v-.62Z"/><path class="cls-2" d="M79.5,7.61a5.49,5.49,0,0,0,1.37.18,5.35,5.35,0,0,0,1.36-.18,11,11,0,0,0,1.37-.45v5.77h5.23v.63H83.6v15a8.3,8.3,0,0,0,.09,1.26A3.58,3.58,0,0,0,84,30.86a1.9,1.9,0,0,0,.72.74,2.44,2.44,0,0,0,1.23.26,2.76,2.76,0,0,0,1.45-.35,3.89,3.89,0,0,0,1.06-.92,5.14,5.14,0,0,0,.73-1.28,10.73,10.73,0,0,0,.47-1.38l.68.13a6,6,0,0,1-.92,2.44A4.92,4.92,0,0,1,88,31.91a5.11,5.11,0,0,1-1.77.65,11.33,11.33,0,0,1-1.79.16,9.53,9.53,0,0,1-3.6-.54,4.49,4.49,0,0,1-1.88-1.34,3.44,3.44,0,0,1-.69-1.75c-.06-.63-.09-1.21-.09-1.75V13.56h-3v-.63h3V7.16A11.39,11.39,0,0,0,79.5,7.61Z"/><path class="cls-2" d="M100.29,12.93v3.76h.09a9.29,9.29,0,0,1,2.17-2.93,5.17,5.17,0,0,1,3.6-1.23,4.51,4.51,0,0,1,3,1,3.51,3.51,0,0,1,1.16,2.8,3.16,3.16,0,0,1-.65,2.1,2.58,2.58,0,0,1-2.08.76,4.06,4.06,0,0,1-1.88-.43,1.59,1.59,0,0,1-.85-1.58,4.43,4.43,0,0,1,0-.47,6.64,6.64,0,0,1,.11-.72c0-.25.08-.48.11-.69s0-.33,0-.36a2,2,0,0,0-.13-.56,1,1,0,0,0-.29-.36,1,1,0,0,0-.61-.16,2.27,2.27,0,0,0-1.11.43,4.56,4.56,0,0,0-1.26,1.23,8.09,8.09,0,0,0-1,2,7.18,7.18,0,0,0-.43,2.57V31.51h3.54v.62H92v-.62h2.91v-18H92v-.63Z"/><path class="cls-2" d="M117.65,22.91c0,1.08,0,2.16.14,3.25a9.32,9.32,0,0,0,.71,2.95,5.38,5.38,0,0,0,1.71,2.17,5,5,0,0,0,3.13.85,6.21,6.21,0,0,0,3-.67,7.52,7.52,0,0,0,2-1.54,7,7,0,0,0,1.17-1.73,4.82,4.82,0,0,0,.42-1.25l.63.23a7.9,7.9,0,0,1-.76,1.81,6.82,6.82,0,0,1-1.48,1.79A8.23,8.23,0,0,1,126,32.16a9,9,0,0,1-3.35.56,13.3,13.3,0,0,1-4.34-.7,10.27,10.27,0,0,1-3.52-2,9.38,9.38,0,0,1-2.35-3.22,10.61,10.61,0,0,1-.85-4.32,9.19,9.19,0,0,1,.81-3.76,10.52,10.52,0,0,1,2.21-3.25A11.27,11.27,0,0,1,118,13.18a9.68,9.68,0,0,1,4.09-.87,10.32,10.32,0,0,1,3.13.49A8.37,8.37,0,0,1,128,14.32,8,8,0,0,1,130.05,17a8.76,8.76,0,0,1,.81,3.92H117.65Zm7.16-5.64c0-.32,0-.73,0-1.2a5,5,0,0,0-.31-1.44,2.74,2.74,0,0,0-.88-1.2,2.56,2.56,0,0,0-1.67-.5,3.46,3.46,0,0,0-2.35.72,4.18,4.18,0,0,0-1.23,1.81,9.32,9.32,0,0,0-.52,2.37c-.07.86-.13,1.67-.16,2.44h7.16Z"/><path class="cls-2" d="M144.51.27l14.9,21.3h.09V.9h-4.12V.27h9V.9h-4.11V32.13H159L138.87,3.45h-.09V31.51h4.12v.62h-9v-.62h4.12V.9h-4.12V.27Z"/><path class="cls-2" d="M182.35,13.14a11.44,11.44,0,0,1,3.46,2.21,10,10,0,0,1,2.31,3.25,9.5,9.5,0,0,1,.83,3.91,9.66,9.66,0,0,1-.83,4,10,10,0,0,1-2.31,3.25,11.21,11.21,0,0,1-3.46,2.19,11.93,11.93,0,0,1-8.64,0,11.14,11.14,0,0,1-3.47-2.19,10.07,10.07,0,0,1-2.3-3.25,9.5,9.5,0,0,1-.83-4,9.34,9.34,0,0,1,.83-3.91,10.07,10.07,0,0,1,2.3-3.25,11.37,11.37,0,0,1,3.47-2.21,11.66,11.66,0,0,1,8.64,0Zm-1.59,18.17a4.93,4.93,0,0,0,1.45-2.18,11.48,11.48,0,0,0,.58-3.08c.08-1.17.11-2.34.11-3.54s0-2.36-.11-3.51a11.55,11.55,0,0,0-.58-3.07,4.9,4.9,0,0,0-1.45-2.17,4.9,4.9,0,0,0-5.46,0,4.92,4.92,0,0,0-1.46,2.17,11.55,11.55,0,0,0-.58,3.07c-.07,1.15-.11,2.32-.11,3.51s0,2.37.11,3.54a11.48,11.48,0,0,0,.58,3.08,5,5,0,0,0,1.46,2.18,5,5,0,0,0,5.46,0Z"/><path class="cls-2" d="M196.35,7.61a5.49,5.49,0,0,0,1.37.18,5.35,5.35,0,0,0,1.36-.18,11,11,0,0,0,1.37-.45v5.77h5.23v.63h-5.23v15a8.3,8.3,0,0,0,.09,1.26,3.58,3.58,0,0,0,.33,1.05,1.9,1.9,0,0,0,.72.74,2.44,2.44,0,0,0,1.23.26,2.76,2.76,0,0,0,1.45-.35,3.89,3.89,0,0,0,1.06-.92,5.14,5.14,0,0,0,.73-1.28,9.39,9.39,0,0,0,.47-1.38l.68.13a6,6,0,0,1-.92,2.44,4.92,4.92,0,0,1-1.48,1.41,5.11,5.11,0,0,1-1.77.65,11.33,11.33,0,0,1-1.79.16,9.53,9.53,0,0,1-3.6-.54,4.49,4.49,0,0,1-1.88-1.34,3.44,3.44,0,0,1-.69-1.75c-.06-.63-.09-1.21-.09-1.75V13.56h-3v-.63h3V7.16A11.39,11.39,0,0,0,196.35,7.61Z"/><path class="cls-2" d="M217.1,12.93V31.51h3v.62H208.64v-.62h3v-18h-3v-.63Zm-5-11.86a3.13,3.13,0,0,1,4.47,0,3.06,3.06,0,0,1,.94,2.24,3,3,0,0,1-.94,2.24,3.13,3.13,0,0,1-4.47,0,3,3,0,0,1-.94-2.24A3.06,3.06,0,0,1,212.13,1.07Z"/><path class="cls-2" d="M223.41,19.07a10.23,10.23,0,0,1,2.12-3.29A11.66,11.66,0,0,1,229,13.29a10.82,10.82,0,0,1,4.72-1,12.36,12.36,0,0,1,3.09.36,8,8,0,0,1,2.39,1,5.11,5.11,0,0,1,1.57,1.57,3.85,3.85,0,0,1,.56,2,2.56,2.56,0,0,1-.76,2.09,3.42,3.42,0,0,1-2.15.6,4.74,4.74,0,0,1-1.9-.38,1.54,1.54,0,0,1-.88-1.59,2.91,2.91,0,0,1,.12-.63c.07-.29.14-.61.22-.94s.15-.64.22-.94a2.75,2.75,0,0,0,.12-.62,1.61,1.61,0,0,0-.79-1.41,3.49,3.49,0,0,0-1.95-.52,4,4,0,0,0-2.55.76,5,5,0,0,0-1.45,2,10.48,10.48,0,0,0-.67,3c-.11,1.11-.16,2.3-.16,3.55s.05,2.33.14,3.49a10.44,10.44,0,0,0,.71,3.18,5.69,5.69,0,0,0,1.7,2.33,4.73,4.73,0,0,0,3.05.89,6.53,6.53,0,0,0,3.08-.65,6.74,6.74,0,0,0,2-1.52,6.92,6.92,0,0,0,1.14-1.74,8.35,8.35,0,0,0,.47-1.28l.63.23a11,11,0,0,1-.7,1.76,6,6,0,0,1-1.36,1.79,7.42,7.42,0,0,1-2.31,1.41,9.32,9.32,0,0,1-3.56.59,15.48,15.48,0,0,1-1.63-.12,12,12,0,0,1-2.28-.49,13.81,13.81,0,0,1-2.49-1.05,8.7,8.7,0,0,1-4-4.61,10.84,10.84,0,0,1-.65-3.94A9.19,9.19,0,0,1,223.41,19.07Z"/><path class="cls-2" d="M252.72,12.93V31.51h3v.62H244.26v-.62h3v-18h-3v-.63Zm-5-11.86a3.14,3.14,0,0,1,4.48,0,3.1,3.1,0,0,1,.94,2.24,3.08,3.08,0,0,1-.94,2.24,3.14,3.14,0,0,1-4.48,0,3.08,3.08,0,0,1-.94-2.24A3.1,3.1,0,0,1,247.75,1.07Z"/><path class="cls-2" d="M277.62,32.54a16.14,16.14,0,0,1-2.21.18,5.71,5.71,0,0,1-3.38-.81,3.47,3.47,0,0,1-1.37-2.24h-.08a4.36,4.36,0,0,1-2,2.42,8.33,8.33,0,0,1-3.63.63,11.09,11.09,0,0,1-2.19-.23,8,8,0,0,1-2.06-.71,4.09,4.09,0,0,1-1.52-1.37,3.73,3.73,0,0,1-.58-2.13,4.28,4.28,0,0,1,.51-2.17,4.82,4.82,0,0,1,1.34-1.47,7.64,7.64,0,0,1,1.88-1c.7-.25,1.43-.5,2.17-.74,1.23-.35,2.22-.66,3-.91a7.42,7.42,0,0,0,1.77-.81,2.38,2.38,0,0,0,.87-1,3.42,3.42,0,0,0,.25-1.39V16.11a4.23,4.23,0,0,0-.59-2.19,2.31,2.31,0,0,0-2.19-1,3.39,3.39,0,0,0-1.79.47,1.87,1.87,0,0,0-.76,1.73,4.71,4.71,0,0,0,.05.47c0,.22.06.47.08.74s.06.52.09.76,0,.4,0,.49a1.64,1.64,0,0,1-.31,1.05,2,2,0,0,1-.74.56,2.51,2.51,0,0,1-.9.2c-.31,0-.57,0-.78,0a7.34,7.34,0,0,1-.92-.06,2,2,0,0,1-.83-.32,1.86,1.86,0,0,1-.6-.69,2.56,2.56,0,0,1-.25-1.21,3.54,3.54,0,0,1,.65-2.08,5.12,5.12,0,0,1,1.73-1.52,9.09,9.09,0,0,1,2.43-.92,12.64,12.64,0,0,1,2.85-.31,18.09,18.09,0,0,1,3.2.27,6.69,6.69,0,0,1,2.59,1,5.25,5.25,0,0,1,1.75,1.95,6.64,6.64,0,0,1,.65,3.11v11.1a4.37,4.37,0,0,0,.24,1.5c.17.43.58.64,1.23.64a1.91,1.91,0,0,0,1-.22A3.19,3.19,0,0,0,279,31l.41.41A2.57,2.57,0,0,1,277.62,32.54ZM270.31,21a1.27,1.27,0,0,1-.34.52,3.52,3.52,0,0,1-.87.56l-1.7.78a6.33,6.33,0,0,0-1.52,1,4.52,4.52,0,0,0-1.1,1.44,4.9,4.9,0,0,0-.43,2.19c0,.36,0,.77.07,1.25a4.83,4.83,0,0,0,.36,1.39,2.86,2.86,0,0,0,.87,1.14,2.53,2.53,0,0,0,1.61.47,2.58,2.58,0,0,0,1.14-.27,2.81,2.81,0,0,0,1-.83,4.2,4.2,0,0,0,.72-1.47,7.93,7.93,0,0,0,.27-2.22V21Z"/><path class="cls-2" d="M282.57,25.64c.36.84.72,1.65,1.1,2.42A9.32,9.32,0,0,0,285,30.12a5.79,5.79,0,0,0,1.83,1.45,5.6,5.6,0,0,0,2.64.56c.27,0,.63,0,1.07,0a3.38,3.38,0,0,0,1.32-.38,3,3,0,0,0,1.12-1,3.49,3.49,0,0,0,.47-2,3,3,0,0,0-.11-.83,2.34,2.34,0,0,0-.47-.87,4.19,4.19,0,0,0-1.05-.88,11.67,11.67,0,0,0-1.9-.87l-3.63-1.34a9.59,9.59,0,0,1-1.34-.61,5,5,0,0,1-1.32-1,5.56,5.56,0,0,1-1-1.5,5.08,5.08,0,0,1-.4-2.08,5.74,5.74,0,0,1,.54-2.46,6.14,6.14,0,0,1,1.5-2,7.31,7.31,0,0,1,2.32-1.39,8.48,8.48,0,0,1,3-.51,6.67,6.67,0,0,1,1.59.18c.49.12.94.24,1.34.38s.76.26,1.08.38a2.23,2.23,0,0,0,.73.18q.49,0,.63-.18a2.3,2.3,0,0,0,.23-.41h.62V18.3h-.58c-.3-.71-.6-1.4-.92-2.05a7.25,7.25,0,0,0-1.12-1.73,4.54,4.54,0,0,0-1.59-1.16,5.65,5.65,0,0,0-2.32-.43,5,5,0,0,0-2.71.79A2.56,2.56,0,0,0,285.3,16a3.36,3.36,0,0,0,.09.72,2.25,2.25,0,0,0,.4.83,3.8,3.8,0,0,0,1,.85,8.71,8.71,0,0,0,1.79.82l3.8,1.3A8.88,8.88,0,0,1,296,22.78a5.1,5.1,0,0,1,1.25,3.54,5.38,5.38,0,0,1-.65,2.66,6.46,6.46,0,0,1-1.7,2,7.77,7.77,0,0,1-2.44,1.28,9.2,9.2,0,0,1-2.86.45,10.29,10.29,0,0,1-1.75-.18c-.62-.12-1.23-.27-1.81-.43l-1.59-.42a4.86,4.86,0,0,0-1.12-.18.78.78,0,0,0-.51.13,1.21,1.21,0,0,0-.29.49h-.63V25.64Z"/><path class="cls-1" d="M311.26,0l.89.27L300.07,32.4l-.9-.27Z"/><path class="cls-1" d="M121,53h.91l2.78-7.39h.25l2.8,7.39h.92v.14h-3.18V53h1.15l-1.08-2.87h-2.4L122.07,53h1.15v.14H121Zm3.35-6-1.13,3h2.26Z"/><path class="cls-1" d="M129.42,50.92h.12a3.87,3.87,0,0,0,.29.94,2.36,2.36,0,0,0,.4.63,1.57,1.57,0,0,0,.45.38,2,2,0,0,0,.48.2,2.57,2.57,0,0,0,.46.07H132a2,2,0,0,0,.9-.17,1.37,1.37,0,0,0,.55-.41,1.39,1.39,0,0,0,.29-.55,1.77,1.77,0,0,0,.08-.54,1.32,1.32,0,0,0-.13-.62,1.48,1.48,0,0,0-.34-.44,2.16,2.16,0,0,0-.45-.29,3.35,3.35,0,0,0-.46-.18l-1.18-.36a2.88,2.88,0,0,1-1.26-.68,1.5,1.5,0,0,1-.43-1.13,2.2,2.2,0,0,1,.16-.86,2.06,2.06,0,0,1,.47-.69,2.15,2.15,0,0,1,.71-.45,2.46,2.46,0,0,1,.91-.17,2.56,2.56,0,0,1,.61.07,1.78,1.78,0,0,1,.41.14,3.37,3.37,0,0,1,.32.14.71.71,0,0,0,.28.06.34.34,0,0,0,.18,0,.51.51,0,0,0,.13-.18h.15v1.87h-.13a3,3,0,0,0-.21-.72,2.27,2.27,0,0,0-.39-.61,1.76,1.76,0,0,0-.57-.42,1.73,1.73,0,0,0-.78-.16,2.22,2.22,0,0,0-.54.07,1.62,1.62,0,0,0-.56.23,1.47,1.47,0,0,0-.43.43,1.29,1.29,0,0,0-.17.68,1.08,1.08,0,0,0,.14.56,1.17,1.17,0,0,0,.34.39,1.87,1.87,0,0,0,.48.27,4.76,4.76,0,0,0,.53.19l1.25.4.49.16a2.18,2.18,0,0,1,.58.31,1.88,1.88,0,0,1,.49.55,1.68,1.68,0,0,1,.2.86,2.39,2.39,0,0,1-.18.92,2.42,2.42,0,0,1-.52.78,2.52,2.52,0,0,1-.83.53,2.68,2.68,0,0,1-1.09.2h-.38a1.55,1.55,0,0,1-.31,0l-.29,0-.32-.08L130.3,53a1.22,1.22,0,0,0-.41-.09.3.3,0,0,0-.22.06.68.68,0,0,0-.09.17h-.16Z"/><path class="cls-1" d="M135.86,53H137V45.94h-1.15V45.8h3.32v.14H138V53h1.14v.14h-3.32Zm2.45-9.15.29-.33a.36.36,0,0,1,.23-.08.34.34,0,0,1,.25.11.33.33,0,0,1,.1.25.26.26,0,0,1-.06.18l-.12.1-1.76,1.26h-.15Z"/><path class="cls-1" d="M141.23,45.8h3.19v.14h-1.14l2.28,6,2.26-6H146.7V45.8h2.22v.14H148l-2.78,7.35H145l-2.81-7.35h-.93Z"/><path class="cls-1" d="M149.14,53h1.15V45.94h-1.15V45.8h3.32v.14h-1.14V53h1.14v.14h-3.32Z"/><path class="cls-1" d="M152.68,45.8h3.18v.14h-1.14l2.29,6,2.25-6h-1.12V45.8h2.23v.14h-.93l-2.77,7.35h-.26l-2.81-7.35h-.92Z"/><path class="cls-1" d="M160.58,53h1.15V45.94h-1.15V45.8h3.32v.14h-1.14V53h1.14v.14h-3.32Z"/><path class="cls-1" d="M164.51,53h1.14V45.94h-1.14V45.8h2.32l1.91,5.55h0l1.9-5.55h2.28v.14H171.8V53h1.14v.14h-3.32V53h1.15V46h0l-2.47,7.14-2.45-7.07h0V53H167v.14h-2.44Z"/><path class="cls-1" d="M173.91,49.46a3.71,3.71,0,0,1,.32-1.53,4.36,4.36,0,0,1,.84-1.21,3.65,3.65,0,0,1,1.15-.81,3,3,0,0,1,1.28-.3,3.1,3.1,0,0,1,1.32.3,3.65,3.65,0,0,1,1.15.81,3.83,3.83,0,0,1,1.11,2.74,3.84,3.84,0,0,1-.27,1.41A4.12,4.12,0,0,1,180,52.1a3.73,3.73,0,0,1-1.14.86,3,3,0,0,1-1.4.33,3.17,3.17,0,0,1-1.44-.32,3.51,3.51,0,0,1-1.13-.85,3.9,3.9,0,0,1-.75-1.22A4,4,0,0,1,173.91,49.46Zm1.19,0a9.57,9.57,0,0,0,.12,1.62,3.24,3.24,0,0,0,.41,1.15,1.81,1.81,0,0,0,.74.69,2.87,2.87,0,0,0,2.25,0,1.81,1.81,0,0,0,.74-.69,3.24,3.24,0,0,0,.42-1.15,9.57,9.57,0,0,0,.12-1.62,10.43,10.43,0,0,0-.09-1.38,3.88,3.88,0,0,0-.36-1.18,2,2,0,0,0-.73-.83,2.56,2.56,0,0,0-2.44,0,2.06,2.06,0,0,0-.74.83,3.87,3.87,0,0,0-.35,1.18A10.43,10.43,0,0,0,175.1,49.46Z"/><path class="cls-1" d="M182.56,50.92h.11a4.34,4.34,0,0,0,.3.94,2.63,2.63,0,0,0,.39.63,1.75,1.75,0,0,0,.46.38,1.68,1.68,0,0,0,.48.2,2.57,2.57,0,0,0,.46.07h.42a1.94,1.94,0,0,0,.89-.17,1.41,1.41,0,0,0,.56-.41,1.54,1.54,0,0,0,.29-.55,2.14,2.14,0,0,0,.08-.54,1.32,1.32,0,0,0-.13-.62,1.67,1.67,0,0,0-.34-.44,2.16,2.16,0,0,0-.45-.29,3.93,3.93,0,0,0-.46-.18l-1.18-.36a3,3,0,0,1-1.27-.68,1.54,1.54,0,0,1-.43-1.13,2.2,2.2,0,0,1,.17-.86,2,2,0,0,1,.46-.69,2.2,2.2,0,0,1,.72-.45,2.55,2.55,0,0,1,1.51-.1,1.88,1.88,0,0,1,.42.14l.32.14a.67.67,0,0,0,.28.06.34.34,0,0,0,.18,0,.68.68,0,0,0,.13-.18h.14v1.87H187a3,3,0,0,0-.21-.72,2.27,2.27,0,0,0-.39-.61,2,2,0,0,0-.57-.42,1.73,1.73,0,0,0-.78-.16,2.16,2.16,0,0,0-.54.07,1.62,1.62,0,0,0-.56.23,1.36,1.36,0,0,0-.43.43,1.29,1.29,0,0,0-.17.68,1.08,1.08,0,0,0,.14.56,1.07,1.07,0,0,0,.34.39,2,2,0,0,0,.47.27c.18.07.36.14.54.19L186,49l.5.16a2.18,2.18,0,0,1,.58.31,1.72,1.72,0,0,1,.48.55,1.59,1.59,0,0,1,.21.86,2.4,2.4,0,0,1-.19.92,2.27,2.27,0,0,1-.52.78,2.47,2.47,0,0,1-.82.53,2.72,2.72,0,0,1-1.09.2h-.38a1.48,1.48,0,0,1-.31,0l-.29,0-.32-.08-.44-.14a1.22,1.22,0,0,0-.42-.09.29.29,0,0,0-.21.06.69.69,0,0,0-.1.17h-.15Z"/><path class="cls-1" d="M188.77,52.71a.57.57,0,0,1,.16-.39.56.56,0,0,1,.78,0,.57.57,0,0,1,.16.39.55.55,0,0,1-1.1,0Z"/></g></g></svg>