<svg version="1.2" xmlns="http://www.w3.org/2000/svg" viewBox="0 0 429 51" width="429" height="51">
	<style>
		.s0 { fill: none;stroke: #050505;stroke-miterlimit:10;stroke-width: .4 } 
		.s1 { fill: #050505 } 
		.s2 { mix-blend-mode: multiply;fill: #3fc2d3 } 
	</style>
	<g id="&lt;Group&gt;">
		<g id="&lt;Group&gt;">
			<path id="&lt;Compound Path&gt;" fill-rule="evenodd" class="s0" d="m29.83 40.64h-21.67q-0.15 0-0.15-0.3 0-0.3 0.15-0.3 1.65 0 2.45-0.25 0.8-0.25 1.07-1 0.28-0.74 0.28-2.19v-23.12q0-1.45-0.28-2.17-0.27-0.73-1.07-1-0.8-0.28-2.45-0.28-0.15 0-0.15-0.3 0-0.3 0.15-0.3h20.77q0.5 0 0.5 0.45l0.1 6.5q0 0.1-0.25 0.12-0.25 0.03-0.35-0.12-0.55-2.85-2.29-4.25-1.75-1.4-4.6-1.4h-2.05q-1.24 0-1.97 0.28-0.72 0.27-1.02 0.9-0.3 0.62-0.3 1.67v10.18h-2.25v1.3h2.25v11.34q0 1.05 0.27 1.72 0.28 0.67 0.88 0.95 0.6 0.27 1.7 0.27h2.44q3.4 0 5.49-1.62 2.1-1.62 3-4.82 0.05-0.15 0.33-0.1 0.27 0.05 0.27 0.15-0.2 1.4-0.35 3.35-0.15 1.94-0.15 3.59 0 0.75-0.75 0.75zm-2.49-11.18q0.29 0 0.29-0.1 0-1.4-0.07-2.57-0.08-1.18-0.08-2.38 0-0.94 0.03-1.84 0.02-0.9 0.02-2.5 0-0.15-0.27-0.15-0.28 0-0.27 0.15 0 1.8-1.35 2.75-1.35 0.95-4.15 0.94h-4.79v1.3h4.74q2.8 0 4.2 1.1 1.4 1.1 1.4 3.2 0 0.1 0.3 0.1z"/>
			<path id="&lt;Compound Path&gt;" class="s0" d="m52.5 13.53v22.87q0 1.25 0.25 1.89 0.25 0.65 0.95 0.85 0.7 0.2 2.04 0.2h3q3.55 0 5.99-1.99 2.45-2 3.25-5.3 0.05-0.15 0.3-0.1 0.25 0.05 0.25 0.2-0.15 1.55-0.3 3.72-0.15 2.18-0.15 4.02 0 0.75-0.75 0.75h-23.37q-0.1 0-0.1-0.3 0-0.3 0.1-0.3 1.6 0 2.42-0.25 0.83-0.25 1.1-1 0.28-0.74 0.28-2.19v-23.12q0-1.45-0.28-2.17-0.27-0.73-1.1-1-0.82-0.28-2.42-0.28-0.1 0-0.1-0.3 0-0.3 0.1-0.3 1.2 0.01 2.8 0.08 1.59 0.07 3.34 0.07 1.85 0 3.42-0.07 1.58-0.07 2.77-0.08 0.15 0 0.15 0.3 0 0.3-0.15 0.3-1.59 0-2.42 0.28-0.82 0.27-1.1 1.02-0.27 0.75-0.27 2.2z"/>
			<path id="&lt;Compound Path&gt;" class="s0" d="m109.42 36.4q0 1.5 0.35 2.27 0.35 0.77 1.47 1.07 1.12 0.3 3.37 0.3 0.15 0 0.15 0.3 0 0.3-0.15 0.3-1.6 0-3.47-0.05-1.87-0.05-4.07-0.05-1.75 0-3.34 0.05-1.6 0.05-2.85 0.05-0.15 0-0.15-0.3 0-0.3 0.15-0.3 1.65 0 2.45-0.25 0.8-0.25 1.07-1 0.28-0.74 0.28-2.19v-23.12q0-1.45-0.28-2.17-0.27-0.73-1.07-1-0.8-0.28-2.45-0.28-0.15 0-0.15-0.3 0-0.3 0.15-0.3 1.25 0.01 2.82 0.08 1.57 0.07 3.32 0.07 1.2 0 3.12-0.15 1.92-0.14 3.72-0.14 3.05 0 5.42 0.82 2.37 0.82 3.77 2.62 1.4 1.8 1.5 4.74 0.05 2.6-0.9 4.5-0.95 1.9-2.57 3.12-1.63 1.22-3.57 1.85-1.95 0.62-3.9 0.62-0.55 0-1.17-0.05-0.63-0.05-1.22-0.2-0.15-0.05-0.1-0.37 0.05-0.33 0.25-0.28 0.39 0.1 0.89 0.15 0.5 0.05 0.85 0.05 1.65 0 3.05-0.9 1.4-0.9 2.27-2.74 0.87-1.85 0.88-4.65-0.01-2.64-0.85-4.49-0.85-1.85-2.38-2.82-1.52-0.98-3.72-0.98-1.14 0-1.79 0.23-0.65 0.22-0.9 0.92-0.25 0.7-0.25 2.15z"/>
			<path id="&lt;Compound Path&gt;" fill-rule="evenodd" class="s0" d="m168.28 40.04q0.2 0 0.2 0.3 0 0.3-0.2 0.3-1.49 0-3.07-0.1-1.57-0.1-3.02-0.1-1.64 0-2.87 0.1-1.22 0.1-2.72 0.1-0.2 0-0.2-0.3 0-0.3 0.2-0.3 2.25 0 2.7-0.8 0.45-0.8-0.75-3.14l-5.38-10.94h1.78l-0.34-1.3h-2.08l-4.12-8.38-3.72 8.38h-0.37l-0.75 1.3h0.54l-3.84 8.64q-1.29 3.05-0.07 4.64 1.22 1.6 4.17 1.6 0.25 0 0.25 0.3 0 0.3-0.25 0.3-1.5 0-2.75-0.1-1.25-0.1-3.14-0.1-1.9 0-3.02 0.1-1.13 0.1-2.77 0.1-0.2 0-0.2-0.3 0-0.3 0.2-0.3 1.34 0 2.32-0.55 0.97-0.55 1.92-2.02 0.95-1.47 2.1-4.12l10.73-24.21q0.1-0.15 0.45-0.15 0.35 0 0.4 0.15l12.23 24.66q1.15 2.4 2.05 3.77 0.9 1.37 1.7 1.92 0.8 0.55 1.69 0.55zm-15.11-14.88l-0.64-1.3h-7.84l-0.58 1.3z"/>
			<path id="&lt;Compound Path&gt;" class="s0" d="m184.26 10.48q-3.04 0-4.96 1.9-1.93 1.9-3.03 5.59 0 0.15-0.27 0.13-0.27-0.03-0.27-0.13 0.1-0.7 0.2-1.92 0.09-1.22 0.22-2.67 0.12-1.45 0.2-2.82 0.07-1.37 0.07-2.22 0-0.25 0.28-0.25 0.27 0 0.27 0.25 0 0.5 0.53 0.72 0.52 0.23 1.17 0.3 0.65 0.08 1.1 0.07 4.29 0.15 10.04 0.15 3.54 0 5.61-0.07 2.07-0.07 4.02-0.08 1.8 0.01 2.72-0.22 0.93-0.22 1.18-1.02 0.05-0.2 0.3-0.2 0.25 0 0.25 0.2-0.05 0.8-0.15 2.17-0.1 1.37-0.15 2.89-0.05 1.53-0.1 2.8-0.05 1.27-0.05 1.92 0 0.1-0.28 0.1-0.27 0-0.32-0.1-0.55-3.94-2.4-5.71-1.85-1.78-4.94-1.78-1.35 0-2.05 0.25-0.7 0.25-0.95 0.93-0.25 0.67-0.25 1.92v23.02q0 1.45 0.33 2.19 0.32 0.75 1.25 1 0.92 0.25 2.82 0.25 0.15 0 0.15 0.3 0 0.3-0.15 0.3-1.35 0-3.07-0.05-1.73-0.05-3.77-0.05-1.95 0-3.65 0.05-1.7 0.05-3.14 0.05-0.1 0-0.1-0.3 0-0.3 0.1-0.3 1.89 0 2.84-0.25 0.95-0.25 1.27-1 0.33-0.74 0.33-2.19v-23.12q0-1.25-0.23-1.87-0.22-0.63-0.92-0.88-0.7-0.25-2.05-0.25z"/>
			<path id="&lt;Compound Path&gt;" fill-rule="evenodd" class="s0" d="m229.45 9.29q4.44 0 6.84 1.67 2.4 1.67 2.4 4.62 0 1.89-0.9 3.59-0.9 1.7-2.4 3-0.81 0.7-1.76 1.25 3.86 5.97 6.63 9.58 2.87 3.75 5.09 5.39 2.22 1.65 4.27 1.65 0.1 0 0.1 0.3 0 0.3-0.1 0.3-3.14 0-5.12 0-1.97 0-2.92 0-0.75 0-2.49-1.97-1.75-1.97-4.22-5.64-2.33-3.45-5.16-8.2-0.84 0.13-1.71 0.13-0.6 0-1.3 0-0.7 0-1.24-0.05v11.69q-0.01 1.45 0.25 2.19 0.24 0.75 1.07 1 0.82 0.25 2.42 0.25 0.15 0 0.15 0.3 0 0.3-0.15 0.3-1.25 0-2.8-0.05-1.54-0.05-3.39-0.05-1.75 0-3.35 0.05-1.59 0.05-2.84 0.05-0.15 0-0.15-0.3 0-0.3 0.15-0.3 1.64 0 2.44-0.25 0.8-0.25 1.1-1 0.3-0.74 0.3-2.19v-23.12q0-1.45-0.27-2.17-0.28-0.73-1.08-1-0.8-0.28-2.44-0.28-0.1 0-0.1-0.3 0-0.3 0.1-0.3 1.24 0.01 2.82 0.08 1.57 0.07 3.32 0.07 1.45 0 3.19-0.15 1.75-0.14 3.25-0.14zm4.29 8.13q0-2.84-0.67-4.41-0.68-1.58-1.82-2.18-1.15-0.6-2.65-0.6-1.15 0-1.85 0.28-0.7 0.27-1 1-0.29 0.72-0.29 2.07v9.94q0.69 0.1 1.49 0.14 0.8 0.06 1.4 0.05 2.95 0 4.17-1.34 1.22-1.35 1.22-4.95z"/>
			<path id="&lt;Compound Path&gt;" class="s0" d="m268.94 36.6q0 1.45 0.28 2.19 0.27 0.75 1.07 1 0.8 0.25 2.45 0.25 0.15 0 0.15 0.3 0 0.3-0.15 0.3-1.3 0-2.85-0.05-1.55-0.05-3.39-0.05-1.75 0-3.32 0.05-1.58 0.05-2.87 0.05-0.15 0-0.15-0.3 0-0.3 0.15-0.3 1.59 0 2.44-0.25 0.85-0.25 1.13-1 0.27-0.74 0.27-2.19v-23.12q0-1.45-0.27-2.17-0.28-0.73-1.1-1-0.83-0.28-2.47-0.28-0.15 0-0.15-0.3 0-0.3 0.15-0.3 1.29 0.01 2.87 0.08 1.57 0.07 3.32 0.07 1.84 0 3.42-0.07 1.57-0.07 2.82-0.08 0.15 0 0.15 0.3 0 0.3-0.15 0.3-1.6 0-2.42 0.3-0.83 0.3-1.1 1.05-0.28 0.75-0.28 2.2z"/>
			<path id="&lt;Compound Path&gt;" fill-rule="evenodd" class="s0" d="m302.3 41.24q-3.6 0-6.52-1.27-2.92-1.28-4.99-3.52-2.07-2.25-3.2-5.17-1.12-2.92-1.12-6.22 0-4.04 1.57-7.09 1.57-3.04 4.17-5.06 2.6-2.03 5.69-3.03 3.1-0.99 6.14-0.99 3.7 0 6.62 1.32 2.92 1.32 4.97 3.57 2.04 2.25 3.12 5.09 1.07 2.85 1.07 5.84 0 3.5-1.4 6.49-1.39 3-3.82 5.25-2.42 2.24-5.59 3.52-3.17 1.27-6.71 1.27zm1.69-1.2q3 0 5.37-1.6 2.37-1.59 3.75-4.71 1.37-3.12 1.37-7.57 0-4.64-1.5-8.24-1.5-3.59-4.29-5.66-2.8-2.08-6.69-2.08-4.85 0-7.52 3.47-2.67 3.47-2.67 9.62 0 3.59 0.9 6.66 0.9 3.07 2.52 5.37 1.62 2.3 3.85 3.52 2.22 1.22 4.91 1.22z"/>
			<path id="&lt;Compound Path&gt;" class="s0" d="m340.44 10.48q-3.04 0-4.96 1.9-1.93 1.9-3.03 5.59 0 0.15-0.27 0.13-0.27-0.03-0.27-0.13 0.09-0.7 0.2-1.92 0.09-1.22 0.22-2.67 0.12-1.45 0.2-2.82 0.07-1.37 0.07-2.22 0-0.25 0.28-0.25 0.27 0 0.27 0.25 0 0.5 0.53 0.72 0.52 0.23 1.17 0.3 0.65 0.08 1.1 0.07 4.29 0.15 10.04 0.15 3.54 0 5.61-0.07 2.07-0.07 4.02-0.08 1.8 0.01 2.72-0.22 0.93-0.22 1.18-1.02 0.05-0.2 0.3-0.2 0.25 0 0.25 0.2-0.05 0.8-0.15 2.17-0.1 1.37-0.15 2.89-0.05 1.53-0.1 2.8-0.05 1.27-0.05 1.92 0 0.1-0.28 0.1-0.27 0-0.32-0.1-0.55-3.94-2.4-5.71-1.85-1.78-4.94-1.78-1.35 0-2.05 0.25-0.7 0.25-0.95 0.93-0.25 0.67-0.25 1.92v23.02q0 1.45 0.33 2.19 0.32 0.75 1.24 1 0.93 0.25 2.83 0.25 0.15 0 0.15 0.3 0 0.3-0.15 0.3-1.35 0-3.08-0.05-1.72-0.05-3.76-0.05-1.95 0-3.65 0.05-1.7 0.05-3.14 0.05-0.1 0-0.1-0.3 0-0.3 0.1-0.3 1.89 0 2.84-0.25 0.95-0.25 1.27-1 0.33-0.74 0.33-2.19v-23.12q0-1.25-0.23-1.87-0.22-0.63-0.92-0.88-0.7-0.25-2.05-0.25z"/>
			<path id="&lt;Compound Path&gt;" fill-rule="evenodd" class="s0" d="m402.9 40.04q0.2 0 0.2 0.3 0 0.3-0.2 0.3-1.49 0-3.07-0.1-1.57-0.1-3.02-0.1-1.64 0-2.87 0.1-1.22 0.1-2.72 0.1-0.2 0-0.2-0.3 0-0.3 0.2-0.3 2.25 0 2.7-0.8 0.45-0.8-0.75-3.14l-5.38-10.94h1.78l-0.34-1.3h-2.08l-4.12-8.38-3.72 8.38h-0.37l-0.75 1.3h0.54l-3.84 8.64q-1.29 3.05-0.07 4.64 1.22 1.6 4.17 1.6 0.25 0 0.25 0.3 0 0.3-0.25 0.3-1.5 0-2.75-0.1-1.25-0.1-3.14-0.1-1.9 0-3.02 0.1-1.13 0.1-2.77 0.1-0.2 0-0.2-0.3 0-0.3 0.2-0.3 1.34 0 2.32-0.55 0.97-0.55 1.92-2.02 0.95-1.47 2.1-4.12l10.73-24.21q0.1-0.15 0.45-0.15 0.35 0 0.4 0.15l12.23 24.66q1.15 2.4 2.05 3.77 0.9 1.37 1.7 1.92 0.8 0.55 1.69 0.55zm-15.11-14.88l-0.64-1.3h-7.84l-0.58 1.3z"/>
		</g>
		<g id="&lt;Group&gt;">
			<path id="&lt;Compound Path&gt;" fill-rule="evenodd" class="s1" d="m28.04 39.62h-21.67q-0.15 0-0.15-0.3 0-0.3 0.15-0.3 1.65 0 2.44-0.25 0.8-0.25 1.08-1 0.27-0.75 0.27-2.2v-23.11q0-1.45-0.27-2.18-0.28-0.72-1.08-0.99-0.79-0.28-2.44-0.28-0.15 0-0.15-0.3 0-0.3 0.15-0.3h20.77q0.5 0 0.5 0.45l0.1 6.49q0 0.1-0.25 0.13-0.25 0.02-0.35-0.13-0.55-2.84-2.3-4.24-1.75-1.4-4.59-1.4h-2.05q-1.25 0-1.97 0.27-0.73 0.28-1.02 0.9-0.3 0.63-0.3 1.68v10.18h-2.25v1.3h2.25v11.33q0 1.05 0.27 1.73 0.28 0.67 0.87 0.95 0.6 0.27 1.7 0.27h2.45q3.39 0 5.49-1.62 2.1-1.62 3-4.82 0.05-0.15 0.32-0.1 0.28 0.05 0.28 0.15-0.2 1.4-0.35 3.34-0.15 1.95-0.15 3.6 0 0.75-0.75 0.75zm-2.5-11.19q0.3 0 0.3-0.1 0-1.39-0.07-2.57-0.08-1.17-0.08-2.37 0-0.95 0.03-1.85 0.02-0.89 0.02-2.49 0-0.15-0.27-0.15-0.28 0-0.28 0.15 0 1.8-1.35 2.74-1.34 0.95-4.14 0.95h-4.79v1.3h4.74q2.79 0 4.19 1.1 1.4 1.1 1.4 3.19 0 0.1 0.3 0.1z"/>
			<path id="&lt;Compound Path&gt;" class="s1" d="m50.71 12.51v22.86q0 1.25 0.24 1.9 0.25 0.65 0.95 0.85 0.7 0.2 2.05 0.2h3q3.54 0 5.99-2 2.44-1.99 3.24-5.29 0.05-0.15 0.3-0.1 0.25 0.05 0.25 0.2-0.15 1.55-0.3 3.72-0.15 2.17-0.15 4.02 0 0.75-0.75 0.75h-23.36q-0.1 0-0.1-0.3 0-0.3 0.1-0.3 1.59 0 2.42-0.25 0.82-0.25 1.1-1 0.27-0.75 0.27-2.2v-23.11q0-1.45-0.27-2.18-0.28-0.72-1.1-0.99-0.83-0.28-2.42-0.28-0.1 0-0.1-0.3 0-0.3 0.1-0.3 1.2 0 2.79 0.08 1.6 0.07 3.35 0.07 1.85 0 3.42-0.07 1.57-0.08 2.77-0.08 0.15 0 0.15 0.3 0 0.3-0.15 0.3-1.6 0-2.42 0.28-0.83 0.27-1.1 1.02-0.27 0.75-0.27 2.2z"/>
			<path id="&lt;Compound Path&gt;" class="s1" d="m107.62 35.37q0 1.5 0.35 2.28 0.35 0.77 1.48 1.07 1.12 0.3 3.37 0.3 0.15 0 0.15 0.3 0 0.3-0.15 0.3-1.6 0-3.47-0.05-1.87-0.05-4.07-0.05-1.75 0-3.35 0.05-1.6 0.05-2.84 0.05-0.15 0-0.15-0.3 0-0.3 0.15-0.3 1.64 0 2.44-0.25 0.8-0.25 1.08-1 0.27-0.75 0.27-2.2v-23.11q0-1.45-0.27-2.18-0.28-0.72-1.08-0.99-0.8-0.28-2.44-0.28-0.15 0-0.15-0.3 0-0.3 0.15-0.3 1.24 0 2.82 0.08 1.57 0.07 3.32 0.07 1.2 0 3.12-0.15 1.92-0.15 3.72-0.15 3.04 0 5.42 0.83 2.37 0.82 3.77 2.62 1.39 1.8 1.49 4.74 0.05 2.6-0.9 4.49-0.94 1.9-2.57 3.13-1.62 1.22-3.57 1.84-1.94 0.63-3.89 0.63-0.55 0-1.17-0.05-0.63-0.05-1.23-0.2-0.15-0.05-0.1-0.38 0.05-0.32 0.25-0.27 0.4 0.1 0.9 0.15 0.5 0.05 0.85 0.05 1.65 0 3.05-0.9 1.39-0.9 2.27-2.75 0.87-1.84 0.87-4.64 0-2.65-0.85-4.49-0.85-1.85-2.37-2.83-1.52-0.97-3.72-0.97-1.15 0-1.8 0.23-0.65 0.22-0.9 0.92-0.25 0.7-0.25 2.15z"/>
			<path id="&lt;Compound Path&gt;" fill-rule="evenodd" class="s1" d="m166.49 39.02q0.2 0 0.2 0.3 0 0.3-0.2 0.3-1.5 0-3.07-0.1-1.57-0.1-3.02-0.1-1.65 0-2.87 0.1-1.23 0.1-2.72 0.1-0.2 0-0.2-0.3 0-0.3 0.2-0.3 2.24 0 2.69-0.8 0.45-0.8-0.74-3.15l-5.38-10.93h1.78l-0.35-1.3h-2.07l-4.12-8.39-3.73 8.39h-0.37l-0.74 1.3h0.54l-3.84 8.64q-1.3 3.04-0.07 4.64 1.22 1.6 4.17 1.6 0.24 0 0.24 0.3 0 0.3-0.24 0.3-1.5 0-2.75-0.1-1.25-0.1-3.15-0.1-1.89 0-3.02 0.1-1.12 0.1-2.77 0.1-0.2 0-0.2-0.3 0-0.3 0.2-0.3 1.35 0 2.32-0.55 0.98-0.55 1.93-2.02 0.94-1.47 2.09-4.12l10.74-24.22q0.1-0.15 0.45-0.15 0.35 0 0.4 0.15l12.23 24.67q1.15 2.39 2.05 3.77 0.89 1.37 1.69 1.92 0.8 0.55 1.7 0.55zm-15.11-14.88l-0.64-1.3h-7.85l-0.57 1.3z"/>
			<path id="&lt;Compound Path&gt;" class="s1" d="m182.47 9.46q-3.05 0-4.97 1.9-1.92 1.9-3.02 5.59 0 0.15-0.27 0.12-0.28-0.02-0.28-0.12 0.1-0.7 0.2-1.92 0.1-1.22 0.23-2.67 0.12-1.45 0.2-2.82 0.07-1.38 0.07-2.23 0-0.25 0.28-0.25 0.27 0 0.27 0.25 0 0.5 0.52 0.73 0.53 0.22 1.18 0.3 0.65 0.07 1.1 0.07 4.29 0.15 10.03 0.15 3.55 0 5.62-0.07 2.07-0.08 4.02-0.08 1.8 0 2.72-0.22 0.92-0.23 1.17-1.03 0.05-0.2 0.3-0.2 0.25 0 0.25 0.2-0.05 0.8-0.15 2.18-0.1 1.37-0.15 2.89-0.05 1.52-0.1 2.8-0.05 1.27-0.05 1.92 0 0.1-0.27 0.1-0.28 0-0.33-0.1-0.55-3.94-2.39-5.72-1.85-1.77-4.95-1.77-1.34 0-2.04 0.25-0.7 0.25-0.95 0.92-0.25 0.68-0.25 1.93v23.01q0 1.45 0.32 2.2 0.33 0.75 1.25 1 0.92 0.25 2.82 0.25 0.15 0 0.15 0.3 0 0.3-0.15 0.3-1.35 0-3.07-0.05-1.72-0.05-3.77-0.05-1.95 0-3.64 0.05-1.7 0.05-3.15 0.05-0.1 0-0.1-0.3 0-0.3 0.1-0.3 1.9 0 2.85-0.25 0.95-0.25 1.27-1 0.33-0.75 0.33-2.2v-23.11q0-1.25-0.23-1.88-0.22-0.62-0.92-0.87-0.7-0.25-2.05-0.25z"/>
			<path id="&lt;Compound Path&gt;" fill-rule="evenodd" class="s1" d="m227.66 8.26q4.44 0 6.84 1.68 2.39 1.67 2.39 4.61 0 1.9-0.9 3.6-0.9 1.7-2.39 2.99-0.82 0.71-1.76 1.25 3.86 5.98 6.63 9.59 2.87 3.74 5.09 5.39 2.22 1.65 4.27 1.65 0.1 0 0.1 0.3 0 0.3-0.1 0.3-3.15 0-5.12 0-1.97 0-2.92 0-0.75 0-2.5-1.97-1.75-1.98-4.22-5.65-2.32-3.44-5.15-8.19-0.84 0.13-1.71 0.13-0.6 0-1.3 0-0.7 0-1.25-0.05v11.68q0 1.45 0.25 2.2 0.25 0.75 1.07 1 0.83 0.25 2.43 0.25 0.15 0 0.15 0.3 0 0.3-0.15 0.3-1.25 0-2.8-0.05-1.55-0.05-3.4-0.05-1.74 0-3.34 0.05-1.6 0.05-2.85 0.05-0.15 0-0.15-0.3 0-0.3 0.15-0.3 1.65 0 2.45-0.25 0.8-0.25 1.1-1 0.3-0.75 0.3-2.2v-23.11q0-1.45-0.28-2.18-0.27-0.72-1.07-0.99-0.8-0.28-2.45-0.28-0.1 0-0.1-0.3 0-0.3 0.1-0.3 1.25 0 2.82 0.08 1.58 0.07 3.32 0.07 1.45 0 3.2-0.15 1.75-0.15 3.25-0.15zm4.29 8.14q0-2.85-0.67-4.42-0.68-1.57-1.83-2.17-1.15-0.6-2.64-0.6-1.15 0-1.85 0.28-0.7 0.27-1 0.99-0.3 0.73-0.3 2.08v9.93q0.7 0.1 1.5 0.15 0.8 0.05 1.4 0.05 2.94 0 4.17-1.35 1.22-1.34 1.22-4.94z"/>
			<path id="&lt;Compound Path&gt;" class="s1" d="m267.15 35.57q0 1.45 0.27 2.2 0.28 0.75 1.08 1 0.8 0.25 2.45 0.25 0.15 0 0.14 0.3 0.01 0.3-0.14 0.3-1.3 0-2.85-0.05-1.55-0.05-3.4-0.05-1.74 0-3.32 0.05-1.57 0.05-2.87 0.05-0.15 0-0.15-0.3 0-0.3 0.15-0.3 1.6 0 2.45-0.25 0.85-0.25 1.12-1 0.28-0.75 0.28-2.2v-23.11q0-1.45-0.28-2.18-0.27-0.72-1.1-0.99-0.82-0.28-2.47-0.28-0.15 0-0.15-0.3 0-0.3 0.15-0.3 1.3 0 2.87 0.08 1.58 0.07 3.32 0.07 1.85 0 3.42-0.07 1.58-0.08 2.83-0.08 0.15 0 0.14 0.3 0.01 0.3-0.14 0.3-1.6 0-2.43 0.3-0.82 0.3-1.1 1.05-0.27 0.75-0.27 2.2z"/>
			<path id="&lt;Compound Path&gt;" fill-rule="evenodd" class="s1" d="m300.5 40.22q-3.59 0-6.51-1.28-2.92-1.27-5-3.52-2.07-2.24-3.19-5.16-1.13-2.92-1.13-6.22 0.01-4.04 1.58-7.09 1.57-3.05 4.17-5.07 2.59-2.02 5.69-3.02 3.09-1 6.14-1 3.69 0 6.62 1.33 2.92 1.32 4.96 3.57 2.05 2.24 3.12 5.09 1.08 2.85 1.08 5.84 0 3.5-1.4 6.49-1.4 3-3.82 5.24-2.42 2.25-5.59 3.52-3.17 1.28-6.72 1.28zm1.7-1.2q3 0 5.37-1.6 2.37-1.6 3.74-4.72 1.37-3.12 1.38-7.56 0-4.64-1.5-8.24-1.5-3.59-4.3-5.67-2.79-2.07-6.69-2.07-4.84 0-7.51 3.47-2.67 3.47-2.67 9.61 0 3.6 0.9 6.67 0.89 3.07 2.52 5.37 1.62 2.29 3.84 3.52 2.22 1.22 4.92 1.22z"/>
			<path id="&lt;Compound Path&gt;" class="s1" d="m338.65 9.46q-3.05 0-4.97 1.9-1.92 1.9-3.02 5.59 0 0.15-0.27 0.12-0.28-0.02-0.28-0.12 0.1-0.7 0.2-1.92 0.1-1.22 0.23-2.67 0.12-1.45 0.2-2.82 0.07-1.38 0.07-2.23 0-0.25 0.27-0.25 0.28 0 0.28 0.25 0 0.5 0.52 0.73 0.53 0.22 1.18 0.3 0.65 0.07 1.1 0.07 4.29 0.15 10.03 0.15 3.55 0 5.62-0.07 2.07-0.08 4.02-0.08 1.79 0 2.72-0.22 0.92-0.23 1.17-1.03 0.05-0.2 0.3-0.2 0.25 0 0.25 0.2-0.05 0.8-0.15 2.18-0.1 1.37-0.15 2.89-0.05 1.52-0.1 2.8-0.05 1.27-0.05 1.92 0 0.1-0.27 0.1-0.28 0-0.33-0.1-0.55-3.94-2.39-5.72-1.85-1.77-4.95-1.77-1.34 0-2.04 0.25-0.7 0.25-0.95 0.92-0.25 0.68-0.25 1.93v23.01q0 1.45 0.32 2.2 0.33 0.75 1.25 1 0.92 0.25 2.82 0.25 0.15 0 0.15 0.3 0 0.3-0.15 0.3-1.35 0-3.07-0.05-1.72-0.05-3.77-0.05-1.95 0-3.64 0.05-1.7 0.05-3.15 0.05-0.1 0-0.1-0.3 0-0.3 0.1-0.3 1.9 0 2.85-0.25 0.95-0.25 1.27-1 0.32-0.75 0.32-2.2v-23.11q0.01-1.25-0.22-1.88-0.22-0.62-0.92-0.87-0.7-0.25-2.05-0.25z"/>
			<path id="&lt;Compound Path&gt;" fill-rule="evenodd" class="s1" d="m401.11 39.02q0.2 0 0.2 0.3 0 0.3-0.2 0.3-1.5 0-3.07-0.1-1.57-0.1-3.02-0.1-1.65 0-2.87 0.1-1.23 0.1-2.72 0.1-0.2 0-0.2-0.3 0-0.3 0.2-0.3 2.24 0 2.69-0.8 0.45-0.8-0.74-3.15l-5.38-10.93h1.78l-0.35-1.3h-2.07l-4.12-8.39-3.73 8.39h-0.37l-0.74 1.3h0.54l-3.84 8.64q-1.3 3.04-0.07 4.64 1.22 1.6 4.17 1.6 0.24 0 0.24 0.3 0 0.3-0.24 0.3-1.5 0-2.75-0.1-1.25-0.1-3.15-0.1-1.89 0-3.02 0.1-1.12 0.1-2.77 0.1-0.2 0-0.2-0.3 0-0.3 0.2-0.3 1.35 0 2.32-0.55 0.98-0.55 1.93-2.02 0.94-1.47 2.09-4.12l10.74-24.22q0.1-0.15 0.45-0.15 0.35 0 0.4 0.15l12.23 24.67q1.15 2.39 2.05 3.77 0.89 1.37 1.69 1.92 0.8 0.55 1.7 0.55zm-15.11-14.88l-0.64-1.3h-7.85l-0.57 1.3z"/>
		</g>
		<path id="&lt;Path&gt;" class="s2" d="m422.37 38.06c0 2.48-2.02 4.5-4.5 4.5-2.48 0-4.5-2.02-4.5-4.5 0-2.49 2.02-4.5 4.5-4.5 2.48 0 4.5 2.01 4.5 4.5z"/>
	</g>
</svg>