<svg version="1.2" xmlns="http://www.w3.org/2000/svg" viewBox="0 0 306 37" width="306" height="37">
	<style>
		.s0 { fill: none;stroke: #fefefe;stroke-miterlimit:10;stroke-width: .4 } 
		.s1 { fill: #fefefe } 
	</style>
	<g id="&lt;Group&gt;">
		<g id="&lt;Group&gt;">
			<path id="&lt;Compound Path&gt;" fill-rule="evenodd" class="s0" d="m24.04 29.84h-15.96q-0.11 0-0.11-0.22 0-0.22 0.11-0.22 1.21 0 1.8-0.18 0.59-0.18 0.79-0.74 0.2-0.55 0.2-1.62v-17.03q0-1.07-0.2-1.6-0.2-0.53-0.79-0.74-0.59-0.2-1.8-0.2-0.11 0-0.11-0.22 0-0.22 0.11-0.22h15.3q0.37 0 0.37 0.33l0.07 4.78q0 0.08-0.18 0.1-0.18 0.02-0.26-0.1-0.4-2.09-1.69-3.12-1.29-1.03-3.38-1.03h-1.51q-0.92 0-1.46 0.2-0.53 0.2-0.75 0.66-0.22 0.46-0.22 1.23v7.51h-1.66v0.96h1.66v8.35q0 0.77 0.2 1.27 0.2 0.49 0.65 0.7 0.44 0.2 1.25 0.2h1.8q2.5 0 4.05-1.2 1.54-1.19 2.2-3.55 0.04-0.11 0.24-0.07 0.2 0.04 0.2 0.11-0.14 1.03-0.25 2.46-0.11 1.44-0.11 2.65 0 0.55-0.56 0.55zm-1.83-8.24q0.22 0 0.22-0.07 0-1.03-0.06-1.89-0.05-0.87-0.05-1.75 0-0.7 0.01-1.36 0.02-0.67 0.02-1.84 0-0.11-0.2-0.11-0.2 0-0.2 0.11 0 1.32-1 2.02-0.99 0.7-3.05 0.7h-3.53v0.96h3.49q2.06 0 3.09 0.81 1.03 0.8 1.03 2.35 0 0.07 0.23 0.07z"/>
			<path id="&lt;Compound Path&gt;" class="s0" d="m40.75 9.87v16.85q0 0.92 0.18 1.4 0.18 0.47 0.7 0.62 0.51 0.15 1.51 0.15h2.21q2.61 0 4.41-1.47 1.8-1.47 2.39-3.9 0.04-0.11 0.22-0.08 0.19 0.04 0.19 0.15-0.11 1.14-0.22 2.74-0.11 1.6-0.12 2.96 0.01 0.55-0.55 0.55h-17.21q-0.08 0-0.08-0.22 0-0.22 0.08-0.22 1.17 0 1.78-0.18 0.61-0.18 0.81-0.74 0.2-0.55 0.2-1.62v-17.03q0-1.07-0.2-1.6-0.2-0.53-0.81-0.74-0.61-0.2-1.78-0.2-0.08 0-0.08-0.22 0-0.22 0.08-0.22 0.88 0 2.06 0.06 1.17 0.05 2.46 0.05 1.36 0 2.52-0.05 1.16-0.06 2.04-0.06 0.11 0 0.11 0.22 0 0.22-0.11 0.22-1.17 0-1.78 0.2-0.61 0.21-0.81 0.76-0.2 0.55-0.2 1.62z"/>
			<path id="&lt;Compound Path&gt;" class="s0" d="m82.69 26.72q0 1.1 0.25 1.67 0.26 0.57 1.09 0.79 0.83 0.22 2.48 0.22 0.11 0 0.11 0.22 0 0.22-0.11 0.22-1.18 0-2.55-0.03-1.38-0.04-3-0.04-1.29 0-2.47 0.04-1.18 0.03-2.09 0.03-0.11 0-0.12-0.22 0.01-0.22 0.12-0.22 1.21 0 1.8-0.18 0.59-0.18 0.79-0.74 0.2-0.55 0.2-1.62v-17.03q0-1.07-0.2-1.6-0.2-0.53-0.79-0.74-0.59-0.2-1.8-0.2-0.11 0-0.12-0.22 0.01-0.22 0.12-0.22 0.91 0 2.07 0.06 1.16 0.05 2.45 0.05 0.88 0 2.3-0.11 1.42-0.11 2.74-0.11 2.24 0 3.99 0.61 1.75 0.6 2.78 1.93 1.03 1.32 1.1 3.49 0.04 1.92-0.66 3.32-0.7 1.39-1.89 2.29-1.2 0.91-2.63 1.37-1.44 0.46-2.87 0.46-0.41 0-0.87-0.04-0.46-0.04-0.9-0.15-0.11-0.03-0.07-0.27 0.03-0.24 0.18-0.21 0.29 0.08 0.66 0.11 0.37 0.04 0.63 0.04 1.21 0 2.24-0.66 1.03-0.66 1.68-2.02 0.64-1.37 0.64-3.43 0-1.95-0.62-3.31-0.63-1.36-1.75-2.08-1.12-0.71-2.74-0.71-0.85 0-1.33 0.16-0.48 0.17-0.66 0.68-0.18 0.52-0.18 1.58z"/>
			<path id="&lt;Compound Path&gt;" fill-rule="evenodd" class="s0" d="m126.06 29.4q0.15 0 0.15 0.22 0 0.22-0.15 0.22-1.1 0-2.26-0.07-1.16-0.07-2.23-0.07-1.21 0-2.11 0.07-0.9 0.07-2.01 0.07-0.15 0-0.15-0.22 0-0.22 0.15-0.22 1.66 0 1.99-0.59 0.33-0.58-0.55-2.31l-3.97-8.06h1.32l-0.26-0.96h-1.53l-3.03-6.18-2.75 6.18h-0.27l-0.55 0.96h0.4l-2.83 6.36q-0.96 2.25-0.05 3.43 0.9 1.17 3.07 1.17 0.18 0 0.18 0.22 0 0.22-0.18 0.22-1.11 0-2.02-0.07-0.92-0.07-2.32-0.07-1.4 0-2.23 0.07-0.83 0.07-2.04 0.07-0.15 0-0.15-0.22 0-0.22 0.15-0.22 0.99 0 1.71-0.4 0.72-0.41 1.42-1.49 0.7-1.09 1.54-3.04l7.91-17.84q0.07-0.11 0.33-0.11 0.26 0 0.3 0.11l9.01 18.17q0.85 1.77 1.51 2.78 0.66 1.01 1.25 1.42 0.59 0.4 1.25 0.4zm-11.14-10.96l-0.47-0.96h-5.78l-0.42 0.96z"/>
			<path id="&lt;Compound Path&gt;" class="s0" d="m137.83 7.62q-2.24 0-3.66 1.4-1.41 1.4-2.22 4.12 0 0.11-0.2 0.09-0.21-0.01-0.21-0.09 0.08-0.51 0.15-1.41 0.07-0.91 0.17-1.97 0.09-1.07 0.14-2.08 0.06-1.01 0.06-1.64 0-0.18 0.2-0.18 0.2 0 0.2 0.18 0 0.37 0.39 0.54 0.39 0.16 0.86 0.22 0.48 0.05 0.81 0.05 3.17 0.11 7.4 0.11 2.61 0 4.14-0.05 1.52-0.06 2.96-0.06 1.32 0 2-0.16 0.68-0.17 0.87-0.76 0.03-0.15 0.22-0.15 0.18 0 0.18 0.15-0.04 0.59-0.11 1.6-0.07 1.01-0.11 2.14-0.04 1.12-0.07 2.06-0.04 0.93-0.04 1.41 0 0.08-0.2 0.08-0.2 0-0.24-0.08-0.41-2.9-1.77-4.21-1.36-1.31-3.64-1.31-0.99 0-1.51 0.19-0.51 0.18-0.7 0.68-0.18 0.5-0.18 1.41v16.96q0 1.07 0.24 1.62 0.24 0.56 0.92 0.74 0.68 0.18 2.08 0.18 0.11 0 0.11 0.22 0 0.22-0.11 0.22-1 0-2.27-0.03-1.26-0.04-2.77-0.04-1.44 0-2.69 0.04-1.25 0.03-2.32 0.03-0.07 0-0.07-0.22 0-0.22 0.07-0.22 1.4 0 2.1-0.18 0.7-0.18 0.94-0.74 0.24-0.55 0.24-1.62v-17.03q0-0.92-0.17-1.38-0.16-0.46-0.68-0.64-0.51-0.19-1.51-0.19z"/>
			<path id="&lt;Compound Path&gt;" fill-rule="evenodd" class="s0" d="m171.13 6.74q3.27 0 5.04 1.23 1.76 1.24 1.76 3.41 0 1.39-0.66 2.65-0.66 1.25-1.76 2.2-0.6 0.52-1.3 0.92 2.84 4.41 4.88 7.07 2.12 2.76 3.75 3.97 1.64 1.21 3.15 1.21 0.07 0 0.07 0.22 0 0.22-0.07 0.22-2.32 0-3.77 0-1.45 0-2.15 0-0.55 0-1.84-1.45-1.29-1.45-3.11-4.16-1.71-2.54-3.8-6.04-0.62 0.1-1.26 0.1-0.44 0-0.96 0-0.51 0-0.92-0.03v8.6q0 1.07 0.19 1.62 0.18 0.56 0.79 0.74 0.61 0.18 1.78 0.18 0.11 0 0.11 0.22 0 0.22-0.11 0.22-0.92 0-2.06-0.03-1.14-0.04-2.5-0.04-1.29 0-2.46 0.04-1.18 0.03-2.1 0.03-0.11 0-0.11-0.22 0-0.22 0.11-0.22 1.21 0 1.8-0.18 0.59-0.18 0.81-0.74 0.22-0.55 0.22-1.62v-17.03q0-1.07-0.2-1.6-0.2-0.53-0.79-0.74-0.59-0.2-1.8-0.2-0.08 0-0.08-0.22 0-0.22 0.08-0.22 0.92 0 2.08 0.06 1.15 0.05 2.44 0.05 1.07 0 2.36-0.11 1.28-0.11 2.39-0.11zm3.16 6q0-2.1-0.49-3.26-0.5-1.16-1.35-1.6-0.84-0.44-1.95-0.44-0.84 0-1.36 0.2-0.51 0.2-0.73 0.74-0.23 0.53-0.23 1.52v7.33q0.52 0.07 1.11 0.11 0.59 0.03 1.03 0.03 2.17 0 3.07-0.99 0.9-0.99 0.9-3.64z"/>
			<path id="&lt;Compound Path&gt;" class="s0" d="m200.23 26.86q0 1.07 0.2 1.62 0.2 0.56 0.79 0.74 0.59 0.18 1.8 0.18 0.12 0 0.11 0.22 0.01 0.22-0.11 0.22-0.95 0-2.09-0.03-1.14-0.04-2.5-0.04-1.29 0-2.45 0.04-1.16 0.03-2.12 0.03-0.11 0-0.11-0.22 0-0.22 0.11-0.22 1.18 0 1.81-0.18 0.62-0.18 0.82-0.74 0.21-0.55 0.21-1.62v-17.03q0-1.07-0.21-1.6-0.2-0.53-0.8-0.74-0.61-0.2-1.83-0.2-0.11 0-0.11-0.22 0-0.22 0.11-0.22 0.96 0 2.12 0.06 1.16 0.05 2.45 0.05 1.36 0 2.52-0.05 1.15-0.06 2.07-0.06 0.12 0 0.11 0.22 0.01 0.22-0.11 0.22-1.17 0-1.78 0.22-0.61 0.22-0.81 0.78-0.2 0.55-0.2 1.61z"/>
			<path id="&lt;Compound Path&gt;" fill-rule="evenodd" class="s0" d="m224.8 30.29q-2.65 0-4.8-0.94-2.15-0.94-3.68-2.6-1.52-1.65-2.35-3.8-0.83-2.16-0.83-4.58 0-2.98 1.16-5.23 1.16-2.24 3.07-3.73 1.91-1.49 4.2-2.23 2.28-0.73 4.52-0.73 2.72 0 4.88 0.97 2.15 0.98 3.66 2.63 1.5 1.66 2.3 3.75 0.79 2.1 0.79 4.31 0 2.57-1.03 4.78-1.03 2.21-2.82 3.86-1.78 1.66-4.12 2.6-2.34 0.94-4.95 0.94zm1.25-0.89q2.21 0 3.96-1.17 1.75-1.18 2.76-3.48 1.01-2.3 1.01-5.57 0-3.43-1.1-6.07-1.11-2.65-3.17-4.18-2.06-1.53-4.93-1.53-3.57 0-5.53 2.56-1.97 2.56-1.97 7.08 0 2.65 0.66 4.91 0.66 2.27 1.86 3.96 1.19 1.69 2.83 2.59 1.64 0.9 3.62 0.9z"/>
			<path id="&lt;Compound Path&gt;" class="s0" d="m252.91 7.62q-2.24 0-3.66 1.4-1.42 1.4-2.23 4.12 0 0.11-0.2 0.09-0.2-0.01-0.2-0.09 0.07-0.51 0.15-1.41 0.07-0.91 0.16-1.97 0.09-1.07 0.15-2.08 0.05-1.01 0.05-1.64 0-0.18 0.21-0.18 0.2 0 0.2 0.18 0 0.37 0.39 0.54 0.38 0.16 0.86 0.22 0.48 0.05 0.81 0.05 3.16 0.11 7.39 0.11 2.62 0 4.14-0.05 1.53-0.06 2.96-0.06 1.33 0 2.01-0.16 0.68-0.17 0.86-0.76 0.04-0.15 0.22-0.15 0.19 0 0.19 0.15-0.04 0.59-0.11 1.6-0.08 1.01-0.11 2.14-0.04 1.12-0.08 2.06-0.03 0.93-0.03 1.41 0 0.08-0.2 0.08-0.21 0-0.24-0.08-0.41-2.9-1.77-4.21-1.36-1.31-3.64-1.31-1 0-1.51 0.19-0.52 0.18-0.7 0.68-0.18 0.5-0.18 1.41v16.96q0 1.07 0.24 1.62 0.24 0.56 0.92 0.74 0.68 0.18 2.07 0.18 0.11 0 0.11 0.22 0 0.22-0.11 0.22-0.99 0-2.26-0.03-1.27-0.04-2.78-0.04-1.43 0-2.68 0.04-1.25 0.03-2.32 0.03-0.07 0-0.07-0.22 0-0.22 0.07-0.22 1.4 0 2.1-0.18 0.7-0.18 0.94-0.74 0.24-0.55 0.24-1.62v-17.03q0-0.92-0.17-1.38-0.17-0.46-0.68-0.64-0.52-0.19-1.51-0.19z"/>
			<path id="&lt;Compound Path&gt;" fill-rule="evenodd" class="s0" d="m298.93 29.4q0.15 0 0.15 0.22 0 0.22-0.15 0.22-1.1 0-2.26-0.07-1.16-0.07-2.22-0.07-1.22 0-2.12 0.07-0.9 0.07-2 0.07-0.15 0-0.15-0.22 0-0.22 0.15-0.22 1.65 0 1.98-0.59 0.33-0.58-0.55-2.31l-3.96-8.06h1.31l-0.26-0.96h-1.52l-3.04-6.18-2.74 6.18h-0.27l-0.56 0.96h0.4l-2.82 6.36q-0.96 2.25-0.06 3.43 0.9 1.17 3.07 1.17 0.19 0 0.19 0.22 0 0.22-0.19 0.22-1.1 0-2.02-0.07-0.92-0.07-2.32-0.07-1.4 0-2.22 0.07-0.83 0.07-2.05 0.07-0.14 0-0.14-0.22 0-0.22 0.14-0.22 1 0 1.71-0.4 0.72-0.41 1.42-1.49 0.7-1.09 1.55-3.04l7.9-17.84q0.08-0.11 0.34-0.11 0.25 0 0.29 0.11l9.01 18.17q0.85 1.77 1.51 2.78 0.66 1.01 1.25 1.42 0.59 0.4 1.25 0.4zm-11.13-10.96l-0.47-0.96h-5.78l-0.43 0.96z"/>
		</g>
		<g id="&lt;Group&gt;">
			<path id="&lt;Compound Path&gt;" fill-rule="evenodd" class="s1" d="m22.72 28.46h-15.96q-0.11 0-0.11-0.22 0-0.22 0.11-0.22 1.21 0 1.8-0.18 0.59-0.18 0.79-0.74 0.2-0.55 0.2-1.62v-17.03q0-1.07-0.2-1.6-0.2-0.53-0.79-0.73-0.59-0.21-1.8-0.21-0.11 0-0.11-0.22 0-0.22 0.11-0.22h15.3q0.37 0 0.37 0.33l0.07 4.78q0 0.08-0.18 0.1-0.19 0.02-0.26-0.1-0.4-2.09-1.69-3.12-1.29-1.03-3.39-1.03h-1.5q-0.92 0-1.46 0.2-0.53 0.2-0.75 0.66-0.22 0.46-0.22 1.23v7.51h-1.66v0.96h1.66v8.35q0 0.77 0.2 1.27 0.2 0.49 0.64 0.7 0.44 0.2 1.25 0.2h1.81q2.5 0 4.04-1.2 1.55-1.19 2.21-3.55 0.04-0.11 0.24-0.07 0.2 0.04 0.2 0.11-0.14 1.03-0.26 2.46-0.11 1.44-0.11 2.65 0 0.55-0.55 0.55zm-1.84-8.24q0.22 0 0.22-0.07 0-1.03-0.05-1.89-0.06-0.87-0.06-1.75 0-0.7 0.02-1.36 0.02-0.67 0.02-1.84 0-0.11-0.2-0.11-0.2 0-0.2 0.11 0 1.32-1 2.02-0.99 0.7-3.05 0.7h-3.53v0.96h3.49q2.06 0 3.09 0.81 1.03 0.81 1.03 2.35 0 0.07 0.22 0.07z"/>
			<path id="&lt;Compound Path&gt;" class="s1" d="m39.42 8.49v16.85q0 0.92 0.19 1.4 0.18 0.47 0.7 0.62 0.51 0.15 1.51 0.15h2.2q2.62 0 4.42-1.47 1.8-1.47 2.39-3.9 0.04-0.11 0.22-0.08 0.18 0.04 0.18 0.15-0.11 1.14-0.22 2.74-0.11 1.6-0.11 2.96 0 0.55-0.55 0.55h-17.22q-0.07 0-0.07-0.22 0-0.22 0.07-0.22 1.18 0 1.79-0.18 0.61-0.18 0.81-0.74 0.2-0.55 0.2-1.62v-17.03q0-1.07-0.2-1.6-0.2-0.53-0.81-0.73-0.61-0.21-1.79-0.21-0.07 0-0.07-0.22 0-0.22 0.07-0.22 0.89 0 2.06 0.06 1.18 0.05 2.47 0.05 1.36 0 2.52-0.05 1.16-0.06 2.04-0.06 0.11 0 0.11 0.22 0 0.22-0.11 0.22-1.18 0-1.78 0.21-0.61 0.2-0.81 0.75-0.21 0.55-0.21 1.62z"/>
			<path id="&lt;Compound Path&gt;" class="s1" d="m81.36 25.34q0 1.1 0.26 1.67 0.26 0.57 1.09 0.79 0.83 0.22 2.48 0.22 0.11 0 0.11 0.22 0 0.22-0.11 0.22-1.18 0-2.56-0.03-1.38-0.04-2.99-0.04-1.29 0-2.47 0.04-1.18 0.03-2.1 0.03-0.11 0-0.11-0.22 0-0.22 0.11-0.22 1.22 0 1.81-0.18 0.58-0.18 0.79-0.74 0.2-0.55 0.2-1.62v-17.03q0-1.07-0.2-1.6-0.21-0.53-0.79-0.73-0.59-0.21-1.81-0.21-0.11 0-0.11-0.22 0-0.22 0.11-0.22 0.92 0 2.08 0.06 1.16 0.05 2.45 0.05 0.88 0 2.3-0.11 1.41-0.11 2.74-0.11 2.24 0 3.99 0.61 1.75 0.6 2.78 1.93 1.03 1.32 1.1 3.49 0.04 1.92-0.66 3.32-0.7 1.39-1.9 2.29-1.19 0.91-2.63 1.37-1.43 0.46-2.87 0.46-0.4 0-0.86-0.04-0.46-0.04-0.9-0.15-0.11-0.03-0.07-0.27 0.03-0.24 0.18-0.21 0.29 0.08 0.66 0.11 0.37 0.04 0.63 0.04 1.21 0 2.24-0.66 1.03-0.66 1.67-2.02 0.65-1.37 0.65-3.43 0-1.95-0.63-3.31-0.62-1.36-1.74-2.08-1.13-0.71-2.75-0.71-0.84 0-1.32 0.16-0.48 0.17-0.66 0.68-0.19 0.52-0.19 1.58z"/>
			<path id="&lt;Compound Path&gt;" fill-rule="evenodd" class="s1" d="m124.74 28.02q0.15 0 0.15 0.22 0 0.22-0.15 0.22-1.11 0-2.26-0.07-1.16-0.07-2.23-0.07-1.21 0-2.11 0.07-0.91 0.07-2.01 0.07-0.15 0-0.15-0.22 0-0.22 0.15-0.22 1.66 0 1.99-0.59 0.33-0.58-0.55-2.31l-3.97-8.06h1.32l-0.26-0.96h-1.53l-3.04-6.18-2.74 6.18h-0.27l-0.55 0.96h0.4l-2.83 6.36q-0.96 2.25-0.06 3.43 0.91 1.17 3.08 1.17 0.18 0 0.18 0.22 0 0.22-0.18 0.22-1.11 0-2.03-0.07-0.92-0.07-2.31-0.07-1.4 0-2.23 0.07-0.83 0.07-2.04 0.07-0.15 0-0.15-0.22 0-0.22 0.15-0.22 0.99 0 1.71-0.4 0.72-0.41 1.41-1.49 0.7-1.09 1.55-3.04l7.91-17.84q0.07-0.11 0.33-0.11 0.26 0 0.3 0.11l9.01 18.17q0.84 1.77 1.51 2.78 0.66 1.01 1.25 1.42 0.59 0.4 1.25 0.4zm-11.14-10.96l-0.47-0.96h-5.78l-0.42 0.96z"/>
			<path id="&lt;Compound Path&gt;" class="s1" d="m136.51 6.24q-2.24 0-3.66 1.4-1.42 1.4-2.22 4.12 0 0.11-0.21 0.09-0.2-0.01-0.2-0.09 0.07-0.51 0.15-1.41 0.07-0.91 0.16-1.97 0.1-1.07 0.15-2.08 0.06-1.01 0.06-1.64 0-0.18 0.2-0.18 0.2 0 0.2 0.18 0 0.37 0.39 0.54 0.38 0.16 0.86 0.22 0.48 0.05 0.81 0.05 3.16 0.11 7.4 0.11 2.61 0 4.13-0.05 1.53-0.06 2.97-0.06 1.32 0 2-0.16 0.68-0.17 0.87-0.76 0.03-0.15 0.22-0.15 0.18 0 0.18 0.15-0.04 0.59-0.11 1.6-0.07 1.01-0.11 2.14-0.04 1.12-0.07 2.06-0.04 0.93-0.04 1.41 0 0.08-0.2 0.08-0.21 0-0.24-0.08-0.41-2.9-1.77-4.21-1.36-1.31-3.64-1.31-0.99 0-1.51 0.19-0.51 0.18-0.7 0.68-0.18 0.5-0.18 1.41v16.96q0 1.07 0.24 1.62 0.24 0.56 0.92 0.74 0.68 0.18 2.08 0.18 0.11 0 0.11 0.22 0 0.22-0.11 0.22-1 0-2.27-0.03-1.27-0.04-2.77-0.04-1.44 0-2.69 0.04-1.25 0.03-2.32 0.03-0.07 0-0.07-0.22 0-0.22 0.07-0.22 1.4 0 2.1-0.18 0.7-0.18 0.94-0.74 0.24-0.55 0.24-1.62v-17.03q0-0.92-0.17-1.38-0.16-0.46-0.68-0.64-0.51-0.19-1.51-0.19z"/>
			<path id="&lt;Compound Path&gt;" fill-rule="evenodd" class="s1" d="m169.81 5.36q3.27 0 5.04 1.23 1.76 1.24 1.76 3.41 0 1.39-0.66 2.65-0.66 1.25-1.77 2.2-0.6 0.52-1.29 0.92 2.84 4.41 4.88 7.07 2.12 2.76 3.75 3.97 1.64 1.21 3.15 1.21 0.07 0 0.07 0.22 0 0.22-0.07 0.22-2.32 0-3.77 0-1.46 0-2.15 0-0.56 0-1.84-1.45-1.29-1.45-3.11-4.16-1.71-2.54-3.8-6.04-0.62 0.1-1.26 0.1-0.44 0-0.96 0-0.51 0-0.92-0.03v8.6q0 1.07 0.19 1.62 0.18 0.56 0.79 0.74 0.6 0.18 1.78 0.18 0.11 0 0.11 0.22 0 0.22-0.11 0.22-0.92 0-2.06-0.03-1.14-0.04-2.5-0.04-1.29 0-2.46 0.04-1.18 0.03-2.1 0.03-0.11 0-0.11-0.22 0-0.22 0.11-0.22 1.21 0 1.8-0.18 0.59-0.18 0.81-0.74 0.22-0.55 0.22-1.62v-17.03q0-1.07-0.2-1.6-0.2-0.53-0.79-0.73-0.59-0.21-1.8-0.21-0.08 0-0.08-0.22 0-0.22 0.08-0.22 0.91 0 2.07 0.06 1.16 0.05 2.45 0.05 1.07 0 2.35-0.11 1.29-0.11 2.4-0.11zm3.16 6q0-2.1-0.5-3.26-0.49-1.16-1.34-1.6-0.85-0.44-1.95-0.44-0.85 0-1.36 0.2-0.52 0.2-0.74 0.74-0.22 0.53-0.22 1.52v7.33q0.52 0.07 1.11 0.11 0.58 0.03 1.03 0.03 2.17 0 3.07-0.99 0.9-0.99 0.9-3.64z"/>
			<path id="&lt;Compound Path&gt;" class="s1" d="m198.91 25.48q0 1.07 0.2 1.62 0.2 0.56 0.79 0.74 0.59 0.18 1.8 0.18 0.11 0 0.11 0.22 0 0.22-0.11 0.22-0.95 0-2.09-0.03-1.15-0.04-2.51-0.04-1.28 0-2.44 0.04-1.16 0.03-2.12 0.03-0.11 0-0.11-0.22 0-0.22 0.11-0.22 1.18 0 1.8-0.18 0.63-0.18 0.83-0.74 0.2-0.55 0.2-1.62v-17.03q0-1.07-0.2-1.6-0.2-0.53-0.81-0.73-0.6-0.21-1.82-0.21-0.11 0-0.11-0.22 0-0.22 0.11-0.22 0.96 0 2.12 0.06 1.16 0.05 2.44 0.05 1.36 0 2.52-0.05 1.16-0.06 2.08-0.06 0.11 0 0.11 0.22 0 0.22-0.11 0.22-1.18 0-1.78 0.22-0.61 0.22-0.81 0.78-0.2 0.55-0.2 1.61z"/>
			<path id="&lt;Compound Path&gt;" fill-rule="evenodd" class="s1" d="m223.48 28.91q-2.65 0-4.8-0.94-2.15-0.94-3.68-2.6-1.53-1.65-2.35-3.8-0.83-2.16-0.83-4.58 0-2.98 1.16-5.23 1.16-2.24 3.07-3.73 1.91-1.49 4.19-2.23 2.28-0.73 4.53-0.73 2.72 0 4.87 0.97 2.16 0.98 3.66 2.63 1.51 1.66 2.3 3.75 0.79 2.1 0.79 4.31 0 2.57-1.03 4.78-1.03 2.21-2.81 3.86-1.79 1.66-4.12 2.6-2.34 0.94-4.95 0.94zm1.25-0.89q2.21 0 3.96-1.17 1.74-1.18 2.76-3.48 1.01-2.3 1.01-5.57 0-3.43-1.11-6.07-1.1-2.65-3.16-4.18-2.06-1.53-4.93-1.53-3.57 0-5.54 2.56-1.96 2.56-1.96 7.08 0 2.65 0.66 4.91 0.66 2.27 1.86 3.96 1.19 1.69 2.83 2.59 1.64 0.9 3.62 0.9z"/>
			<path id="&lt;Compound Path&gt;" class="s1" d="m251.59 6.24q-2.25 0-3.66 1.4-1.42 1.4-2.23 4.12 0 0.11-0.2 0.09-0.2-0.01-0.2-0.09 0.07-0.51 0.15-1.41 0.07-0.91 0.16-1.97 0.09-1.07 0.15-2.08 0.05-1.01 0.05-1.64 0-0.18 0.21-0.18 0.2 0 0.2 0.18 0 0.37 0.38 0.54 0.39 0.16 0.87 0.22 0.48 0.05 0.81 0.05 3.16 0.11 7.39 0.11 2.61 0 4.14-0.05 1.53-0.06 2.96-0.06 1.33 0 2.01-0.16 0.68-0.17 0.86-0.76 0.04-0.15 0.22-0.15 0.19 0 0.19 0.15-0.04 0.59-0.11 1.6-0.08 1.01-0.11 2.14-0.04 1.12-0.08 2.06-0.03 0.93-0.03 1.41 0 0.08-0.21 0.08-0.2 0-0.24-0.08-0.4-2.9-1.76-4.21-1.36-1.31-3.64-1.31-1 0-1.51 0.19-0.52 0.18-0.7 0.68-0.19 0.5-0.18 1.41v16.96q0 1.07 0.23 1.62 0.24 0.56 0.92 0.74 0.68 0.18 2.08 0.18 0.11 0 0.11 0.22 0 0.22-0.11 0.22-0.99 0-2.26-0.03-1.27-0.04-2.78-0.04-1.43 0-2.68 0.04-1.25 0.03-2.32 0.03-0.07 0-0.07-0.22 0-0.22 0.07-0.22 1.4 0 2.1-0.18 0.69-0.18 0.93-0.74 0.24-0.55 0.24-1.62v-17.03q0-0.92-0.16-1.38-0.17-0.46-0.68-0.64-0.52-0.19-1.51-0.19z"/>
			<path id="&lt;Compound Path&gt;" fill-rule="evenodd" class="s1" d="m297.61 28.02q0.15 0 0.15 0.22 0 0.22-0.15 0.22-1.1 0-2.26-0.07-1.16-0.07-2.23-0.07-1.21 0-2.11 0.07-0.9 0.07-2.01 0.07-0.14 0-0.14-0.22 0-0.22 0.14-0.22 1.66 0 1.99-0.59 0.33-0.58-0.55-2.31l-3.96-8.06h1.31l-0.26-0.96h-1.52l-3.04-6.18-2.75 6.18h-0.27l-0.55 0.96h0.4l-2.83 6.36q-0.95 2.25-0.05 3.43 0.9 1.17 3.07 1.17 0.18 0 0.18 0.22 0 0.22-0.18 0.22-1.1 0-2.02-0.07-0.92-0.07-2.32-0.07-1.4 0-2.23 0.07-0.82 0.07-2.04 0.07-0.15 0-0.15-0.22 0-0.22 0.15-0.22 0.99 0 1.71-0.4 0.72-0.41 1.42-1.49 0.7-1.09 1.54-3.04l7.91-17.84q0.08-0.11 0.33-0.11 0.26 0 0.3 0.11l9.01 18.17q0.85 1.77 1.51 2.78 0.66 1.01 1.25 1.42 0.59 0.4 1.25 0.4zm-11.13-10.96l-0.47-0.96h-5.79l-0.42 0.96z"/>
		</g>
	</g>
</svg>